<svg xmlns="http://www.w3.org/2000/svg" width="302" height="106" viewBox="0 0 302 106" fill="none">
<g clip-path="url(#clip0_903_69)">
<path d="M300.94 14.27C300.94 14.27 276.31 11.66 253.19 0C230.07 11.66 205.44 14.27 205.44 14.27C203.64 61.44 222.37 86.36 236.9 98.5C235.31 96.86 233.78 95.13 232.32 93.32C225.64 85.04 220.42 75.17 216.81 63.97C214.65 57.26 213.04 49.99 212.04 42.37C211.12 35.38 210.7 27.95 210.76 20.22C213.52 19.74 217.35 18.97 221.88 17.83C227.31 16.46 232.63 14.82 237.72 12.95C243.18 10.95 248.37 8.67 253.19 6.18C258.01 8.67 263.21 10.94 268.66 12.95C273.75 14.82 279.08 16.46 284.5 17.83C289.03 18.97 292.85 19.74 295.62 20.22C295.69 27.84 295.27 35.18 294.38 42.08C293.4 49.64 291.84 56.85 289.72 63.52C286.18 74.67 281.05 84.53 274.47 92.81C272.9 94.79 271.24 96.69 269.5 98.48C284.03 86.33 302.74 61.41 300.94 14.26" fill="white"/>
<path d="M247.3 96.4801C247.3 96.6801 247.27 96.8601 247.2 97.0301C247.13 97.1901 247.03 97.3301 246.9 97.4501C246.77 97.5701 246.61 97.6601 246.43 97.7201C246.25 97.7801 246.04 97.8101 245.81 97.8101C245.61 97.8101 245.42 97.7901 245.22 97.7501C245.02 97.7101 244.85 97.6501 244.7 97.5701C244.54 97.4901 244.42 97.4001 244.32 97.2901C244.22 97.1801 244.17 97.0601 244.17 96.9301V96.1601H244.31C244.39 96.6401 244.55 96.9901 244.79 97.2001C245.03 97.4101 245.35 97.5201 245.75 97.5201C245.87 97.5201 245.99 97.5001 246.1 97.4701C246.21 97.4401 246.31 97.3901 246.4 97.3301C246.49 97.2701 246.56 97.1901 246.61 97.1001C246.66 97.0101 246.69 96.9001 246.69 96.7801C246.69 96.5701 246.62 96.3901 246.49 96.2401C246.36 96.0901 246.16 95.9401 245.9 95.7901L245.01 95.2601C244.7 95.0801 244.49 94.8901 244.36 94.7101C244.23 94.5201 244.17 94.2901 244.17 94.0301C244.17 93.8401 244.2 93.6701 244.27 93.5301C244.34 93.3801 244.43 93.2501 244.55 93.1501C244.67 93.0401 244.82 92.9601 244.99 92.9001C245.16 92.8401 245.35 92.8101 245.56 92.8101C245.74 92.8101 245.92 92.8301 246.1 92.8701C246.28 92.9101 246.45 92.9601 246.6 93.0401C246.75 93.1101 246.87 93.2001 246.97 93.3101C247.07 93.4201 247.11 93.5401 247.11 93.6701V94.4401H246.97C246.89 93.9601 246.73 93.6101 246.5 93.4001C246.27 93.1901 245.96 93.0901 245.55 93.0901C245.45 93.0901 245.34 93.1101 245.24 93.1401C245.14 93.1701 245.05 93.2201 244.98 93.2801C244.9 93.3401 244.84 93.4201 244.79 93.5101C244.74 93.6001 244.72 93.7001 244.72 93.8101C244.72 93.9201 244.74 94.0101 244.77 94.0901C244.8 94.1701 244.85 94.2501 244.92 94.3201C244.99 94.3901 245.07 94.4601 245.17 94.5301C245.27 94.6001 245.39 94.6701 245.52 94.7501L246.4 95.2801C246.55 95.3701 246.69 95.4601 246.8 95.5401C246.91 95.6201 247 95.7101 247.08 95.8101C247.15 95.9001 247.21 96.0001 247.24 96.1101C247.28 96.2101 247.29 96.3301 247.29 96.4701" fill="white"/>
<path d="M248.25 92.9399H248.9V96.8299C248.9 97.0499 248.93 97.2199 248.99 97.3499C249.05 97.4799 249.19 97.5499 249.4 97.5499H249.54V97.6899H248.89C248.77 97.6899 248.66 97.6899 248.58 97.6599C248.5 97.6399 248.43 97.5899 248.38 97.5299C248.33 97.4599 248.29 97.3799 248.28 97.2699C248.26 97.1599 248.25 97.0099 248.25 96.8299V92.9399Z" fill="white"/>
<path d="M250.46 93.8102C250.46 93.5902 250.41 93.4202 250.32 93.2902C250.23 93.1602 250.06 93.0902 249.81 93.0902H249.74V92.9502H250.21C250.44 92.9502 250.64 92.9902 250.79 93.0702C250.94 93.1502 251.07 93.2502 251.18 93.3902L253.7 96.5202V92.9602H253.99V97.7802H253.85L250.76 93.9302V97.7102H250.47V93.8202L250.46 93.8102Z" fill="white"/>
<path d="M258.83 94.4601C258.74 93.9901 258.57 93.6401 258.32 93.4201C258.07 93.2001 257.75 93.0901 257.35 93.0901C257.11 93.0901 256.89 93.1301 256.68 93.2101C256.47 93.2901 256.29 93.4201 256.13 93.6001C255.97 93.7801 255.85 94.0201 255.76 94.3101C255.67 94.6001 255.62 94.9601 255.62 95.4001C255.62 95.6701 255.65 95.9301 255.72 96.1901C255.79 96.4501 255.89 96.6801 256.02 96.8801C256.16 97.0801 256.34 97.2501 256.56 97.3701C256.78 97.4901 257.04 97.5601 257.35 97.5601C257.71 97.5601 258.02 97.4701 258.28 97.3001C258.54 97.1301 258.77 96.8801 258.97 96.5501L259.11 96.6601C258.99 96.8901 258.87 97.0701 258.72 97.2301C258.58 97.3801 258.42 97.5001 258.26 97.6001C258.1 97.6901 257.92 97.7601 257.73 97.8001C257.54 97.8401 257.34 97.8601 257.12 97.8601C256.78 97.8601 256.47 97.8001 256.19 97.6701C255.91 97.5401 255.68 97.3701 255.49 97.1501C255.3 96.9301 255.15 96.6701 255.04 96.3701C254.94 96.0701 254.89 95.7501 254.89 95.4101C254.89 95.0501 254.95 94.7101 255.07 94.4001C255.19 94.0901 255.35 93.8101 255.55 93.5801C255.75 93.3401 255.99 93.1601 256.26 93.0301C256.53 92.8901 256.82 92.8301 257.13 92.8301C257.53 92.8301 257.87 92.8901 258.16 93.0001C258.45 93.1101 258.66 93.2501 258.79 93.4101C258.88 93.5201 258.93 93.6701 258.95 93.8701C258.96 94.0701 258.97 94.2701 258.97 94.4901H258.83V94.4601Z" fill="white"/>
<path d="M262.56 92.9399C262.68 92.9399 262.79 92.9599 262.87 92.9899C262.95 93.0199 263.01 93.0699 263.06 93.1199C263.11 93.1699 263.14 93.2299 263.15 93.2999C263.17 93.3699 263.18 93.4399 263.18 93.5099V94.0499H263.04C263.04 93.7599 262.96 93.5499 262.81 93.4199C262.65 93.2899 262.43 93.2199 262.14 93.2199H260.8V95.0899H262.74V95.3799H260.8V97.3899H262.06C262.39 97.3899 262.64 97.3299 262.83 97.2099C263.02 97.0899 263.17 96.8899 263.28 96.5999L263.42 96.6399L263.17 97.3199C263.13 97.4299 263.07 97.5199 262.98 97.5799C262.89 97.6499 262.77 97.6799 262.63 97.6799H260.15V93.7999C260.15 93.5799 260.12 93.4099 260.06 93.2799C260 93.1499 259.86 93.0799 259.65 93.0799H259.51V92.9399H262.58H262.56Z" fill="white"/>
<path d="M247.12 104.89H246.34V100.05L245.51 100.6L245.35 100.4L246.69 99.1899H247.12V104.89Z" fill="white"/>
<path d="M251.22 102.13C251.22 101.63 251.19 101.21 251.13 100.86C251.07 100.51 250.99 100.22 250.89 100C250.79 99.78 250.67 99.62 250.52 99.52C250.38 99.42 250.22 99.37 250.05 99.37C249.89 99.37 249.74 99.41 249.61 99.5C249.48 99.59 249.37 99.71 249.28 99.86C249.19 100.01 249.12 100.18 249.08 100.37C249.04 100.56 249.01 100.76 249.01 100.97C249.01 101.46 249.1 101.86 249.29 102.14C249.47 102.43 249.77 102.57 250.18 102.57C250.4 102.57 250.59 102.53 250.75 102.45C250.91 102.37 251.07 102.27 251.22 102.14M252.04 102.04C252.04 103.04 251.87 103.8 251.51 104.3C251.16 104.81 250.61 105.06 249.88 105.06C249.6 105.06 249.35 105.03 249.13 104.98C248.91 104.92 248.72 104.87 248.54 104.8L248.58 104.63C248.71 104.65 248.88 104.67 249.08 104.69C249.28 104.71 249.49 104.72 249.71 104.72C249.97 104.72 250.19 104.67 250.38 104.57C250.57 104.47 250.73 104.32 250.85 104.12C250.97 103.93 251.07 103.7 251.13 103.42C251.19 103.15 251.22 102.85 251.22 102.51C251.07 102.62 250.89 102.71 250.69 102.79C250.49 102.86 250.23 102.9 249.93 102.9C249.63 102.9 249.36 102.85 249.15 102.76C248.93 102.67 248.75 102.54 248.61 102.37C248.47 102.2 248.37 101.99 248.3 101.76C248.23 101.52 248.2 101.25 248.2 100.96C248.2 100.71 248.24 100.47 248.31 100.24C248.38 100.01 248.5 99.8 248.65 99.62C248.81 99.44 249 99.29 249.23 99.18C249.46 99.07 249.74 99.02 250.05 99.02C250.74 99.02 251.24 99.28 251.56 99.79C251.88 100.3 252.03 101.05 252.03 102.04" fill="white"/>
<path d="M253.76 101.95C253.76 102.44 253.79 102.87 253.85 103.22C253.91 103.57 253.99 103.86 254.09 104.08C254.19 104.3 254.31 104.46 254.46 104.56C254.6 104.66 254.76 104.71 254.94 104.71C255.1 104.71 255.25 104.66 255.38 104.58C255.51 104.49 255.62 104.37 255.71 104.22C255.8 104.07 255.87 103.9 255.91 103.71C255.96 103.52 255.98 103.32 255.98 103.11C255.98 102.62 255.89 102.23 255.7 101.94C255.52 101.65 255.22 101.51 254.81 101.51C254.59 101.51 254.4 101.55 254.24 101.63C254.08 101.71 253.92 101.81 253.77 101.95M252.94 102.04C252.94 101.04 253.12 100.28 253.47 99.78C253.82 99.27 254.37 99.02 255.1 99.02C255.38 99.02 255.63 99.05 255.85 99.1C256.07 99.15 256.27 99.21 256.44 99.28L256.4 99.45C256.27 99.43 256.1 99.41 255.9 99.39C255.7 99.37 255.49 99.37 255.27 99.37C255.01 99.37 254.79 99.42 254.6 99.52C254.41 99.62 254.25 99.77 254.13 99.96C254.01 100.15 253.91 100.38 253.85 100.66C253.79 100.93 253.76 101.23 253.76 101.57C253.91 101.46 254.09 101.37 254.29 101.29C254.5 101.22 254.75 101.18 255.05 101.18C255.35 101.18 255.61 101.23 255.83 101.32C256.05 101.41 256.23 101.54 256.37 101.71C256.51 101.88 256.61 102.08 256.68 102.32C256.75 102.56 256.78 102.83 256.78 103.12C256.78 103.37 256.74 103.61 256.67 103.84C256.6 104.07 256.48 104.28 256.33 104.46C256.17 104.64 255.98 104.79 255.75 104.9C255.52 105.01 255.24 105.07 254.93 105.07C254.24 105.07 253.74 104.81 253.42 104.31C253.1 103.8 252.95 103.05 252.95 102.05" fill="white"/>
<path d="M259.65 99.36C259.41 99.36 259.22 99.41 259.06 99.52C258.9 99.63 258.78 99.8 258.69 100.02C258.6 100.24 258.53 100.52 258.5 100.85C258.46 101.18 258.44 101.58 258.44 102.03C258.44 102.48 258.46 102.88 258.5 103.21C258.54 103.54 258.6 103.82 258.69 104.04C258.78 104.26 258.91 104.43 259.06 104.54C259.21 104.65 259.41 104.7 259.65 104.7C259.89 104.7 260.08 104.65 260.24 104.54C260.4 104.43 260.52 104.27 260.61 104.04C260.7 103.82 260.77 103.54 260.81 103.21C260.85 102.88 260.87 102.48 260.87 102.03C260.87 101.58 260.85 101.18 260.81 100.85C260.77 100.52 260.71 100.24 260.61 100.02C260.52 99.8 260.39 99.63 260.24 99.52C260.09 99.41 259.89 99.36 259.65 99.36ZM259.65 99.02C260.03 99.02 260.35 99.09 260.61 99.24C260.87 99.38 261.09 99.59 261.25 99.85C261.41 100.11 261.53 100.43 261.61 100.8C261.68 101.17 261.72 101.59 261.72 102.04C261.72 102.49 261.68 102.91 261.61 103.28C261.53 103.65 261.41 103.97 261.25 104.23C261.09 104.49 260.87 104.7 260.61 104.84C260.35 104.98 260.03 105.06 259.65 105.06C259.27 105.06 258.95 104.99 258.69 104.84C258.43 104.7 258.22 104.49 258.05 104.23C257.89 103.96 257.77 103.65 257.69 103.28C257.62 102.91 257.58 102.49 257.58 102.04C257.58 101.59 257.62 101.17 257.69 100.8C257.77 100.43 257.88 100.11 258.05 99.85C258.21 99.58 258.43 99.38 258.69 99.24C258.95 99.1 259.27 99.02 259.65 99.02Z" fill="white"/>
<path d="M274.65 70.16C270.74 67.83 266.12 67.1 259.66 68.4C253.2 69.7 245.51 72.66 241.08 73.04C236.66 73.42 231.95 73.45 227.34 70.46C222.73 67.47 222.6 62.04 222.6 62.04C222.6 62.04 221.59 70.62 229.67 74.72C237.75 78.83 245.11 75.95 255.01 73.9C264.91 71.85 272.9 70.21 279.92 75.67C279.92 75.67 278.56 72.48 274.64 70.15" fill="white"/>
<path d="M263.13 74.48C259.12 75.17 249.05 78.62 249.05 78.62C252.86 77.97 260.91 74.97 268.73 75.59C276.55 76.21 279.84 80.76 279.84 80.76C275.49 72.84 267.13 73.79 263.12 74.48" fill="white"/>
<path d="M261.94 63.3698C261.92 63.2898 259.58 53.6298 273.47 62.7298V63.0598C270.46 63.2198 266.68 63.3398 261.94 63.3598M273.47 27.5498V62.2898C271.06 58.3198 260.77 39.5598 273.47 27.5498ZM237.82 62.8498C234.06 59.0598 227.83 51.0198 237.31 32.5198V38.2498C233.31 45.1198 231.73 53.0198 237.31 60.4598V62.8398C236.94 62.8298 236.55 62.8098 236.17 62.7898H236.1C234.46 62.7198 232.78 62.6398 231.03 62.5598C231.03 62.5598 225.06 57.7498 218.38 55.3498C218.38 55.3498 227.5 64.7598 231.54 70.2098H250.39C253.41 69.3298 256.6 68.3998 259.53 67.8098C265.99 66.5098 270.61 67.2498 274.52 69.5698C274.87 69.7798 275.19 69.9898 275.5 70.2098H276.9C276.9 70.2098 279.03 64.5098 284.81 61.5198C284.58 61.6398 282.65 62.5098 274.42 63.0098V26.7598C274.42 26.4998 274.21 26.2898 273.94 26.2898C273.67 26.2898 273.47 26.4998 273.47 26.7598V27.4198C270.03 29.7798 249.31 45.1098 261.94 63.3698C261.3 63.3698 260.64 63.3698 259.97 63.3698C258.73 63.3698 257.43 63.3698 256.07 63.3498V19.3898C256.07 19.0798 255.86 18.8198 255.6 18.8198C255.34 18.8198 255.13 19.0698 255.13 19.3898V19.7298C252.97 21.2698 243.89 28.0198 238.26 36.7198V31.7598C238.26 31.5298 238.05 31.3498 237.79 31.3498C237.53 31.3498 237.32 31.5298 237.32 31.7598V32.0998C234.15 33.1698 216.17 39.9598 218.4 55.3598C218.4 55.3598 226.45 54.5398 237.93 63.2298L237.83 62.8598L237.82 62.8498ZM238.26 62.8798V61.6398C238.63 62.0698 239.02 62.4998 239.44 62.9298C239.44 62.9298 232.97 52.6398 255.13 62.4898V63.3498C250.31 63.2898 244.73 63.1498 238.26 62.8898M255.12 20.2598V61.4598C250.57 54.4698 245.74 37.5998 255.12 20.2598Z" fill="white"/>
<path d="M5.81 34.4301C5.81 34.2401 5.88 34.0901 6.01 33.9801C6.14 33.8701 6.29 33.8101 6.46 33.8101H7.69C7.86 33.8101 8 33.8701 8.12 33.9801C8.24 34.0901 8.3 34.2401 8.3 34.4301V35.9401C8.3 36.1101 8.24 36.2501 8.12 36.3601C8 36.4701 7.84 36.5301 7.66 36.5301H6.45C6.26 36.5301 6.11 36.4701 5.99 36.3601C5.87 36.2501 5.81 36.1101 5.81 35.9401V34.4301ZM2.08 41.9501C2.38 41.9501 2.52 42.1401 2.5 42.5101C2.48 42.7301 2.46 42.9701 2.43 43.2201C2.4 43.4701 2.38 43.7301 2.36 43.9801C2.34 44.2301 2.33 44.4701 2.32 44.7001C2.32 44.9201 2.31 45.1101 2.31 45.2601C2.31 46.2301 2.38 47.1401 2.52 47.9701C2.66 48.8001 2.96 49.5201 3.42 50.1301C3.88 50.7401 4.53 51.2201 5.38 51.5601C6.23 51.9101 7.37 52.0801 8.79 52.0801C9.28 52.0801 9.72 52.0801 10.12 52.0501C10.52 52.0301 10.96 51.9701 11.42 51.8801C11.42 51.3701 11.42 50.9201 11.43 50.5201C11.43 50.1201 11.44 49.7401 11.44 49.3801V38.8901C11.44 38.7401 11.49 38.6101 11.59 38.5101C11.69 38.4101 11.81 38.3601 11.94 38.3601H13.32C13.47 38.3601 13.59 38.4101 13.67 38.5101C13.75 38.6101 13.8 38.7401 13.8 38.8901V47.2801H16.41V49.6901H13.8V51.6801C13.8 52.0201 13.8 52.3401 13.78 52.6601C13.78 52.9801 13.76 53.2501 13.74 53.4801C13.74 53.7801 13.54 53.9801 13.15 54.0701C12.44 54.2201 11.71 54.3301 10.96 54.3901C10.21 54.4601 9.46 54.4901 8.72 54.4901C7.09 54.4901 5.72 54.3101 4.61 53.9401C3.5 53.5801 2.6 53.0401 1.92 52.3301C1.24 51.6201 0.75 50.7401 0.45 49.7101C0.15 48.6701 0 47.4901 0 46.1601C0 45.9901 0.01 45.7501 0.03 45.4401C0.05 45.1301 0.07 44.8001 0.1 44.4401C0.13 44.0801 0.16 43.7301 0.2 43.3901C0.24 43.0401 0.28 42.7401 0.34 42.4801C0.38 42.2701 0.43 42.1301 0.51 42.0601C0.58 41.9801 0.72 41.9501 0.9 41.9501H2.08Z" fill="white"/>
<path d="M21.35 52.9201C21.35 52.7301 21.42 52.5801 21.56 52.4701C21.7 52.3601 21.85 52.3001 22.02 52.3001H23.11C23.28 52.3001 23.43 52.3601 23.56 52.4701C23.69 52.5801 23.76 52.7301 23.76 52.9201V54.4401C23.76 54.5901 23.69 54.7301 23.56 54.8501C23.43 54.9701 23.28 55.0301 23.11 55.0301H22.02C21.85 55.0301 21.7 54.9701 21.56 54.8501C21.42 54.7301 21.35 54.5901 21.35 54.4401V52.9201ZM16.78 52.9201C16.78 52.7301 16.84 52.5801 16.96 52.4701C17.08 52.3601 17.24 52.3001 17.42 52.3001H18.52C18.71 52.3001 18.86 52.3601 18.98 52.4701C19.1 52.5801 19.16 52.7301 19.16 52.9201V54.4401C19.16 54.5901 19.09 54.7301 18.96 54.8501C18.83 54.9701 18.68 55.0301 18.51 55.0301H17.41C17.22 55.0301 17.07 54.9701 16.95 54.8501C16.83 54.7301 16.77 54.5901 16.77 54.4401V52.9201H16.78ZM15.29 47.6501C15.29 47.5401 15.38 47.4501 15.57 47.3801C15.76 47.3101 15.98 47.2801 16.24 47.2801H17.5C17.69 47.2801 17.89 47.2801 18.12 47.2501C18.35 47.2301 18.56 47.1901 18.77 47.1201C18.97 47.0501 19.15 46.9501 19.29 46.8101C19.43 46.6701 19.5 46.4801 19.5 46.2301V38.8801C19.5 38.7301 19.55 38.6001 19.65 38.5001C19.75 38.4001 19.88 38.3501 20.03 38.3501H21.32C21.47 38.3501 21.6 38.4001 21.7 38.5001C21.8 38.6001 21.85 38.7301 21.85 38.8801V46.6001C21.91 46.7501 22.02 46.8701 22.2 46.9501C22.38 47.0301 22.57 47.1001 22.79 47.1501C23 47.2001 23.22 47.2301 23.45 47.2501C23.67 47.2701 23.87 47.2801 24.04 47.2801H24.43V49.6901H24.09C23.51 49.6901 22.89 49.6301 22.22 49.5101C21.55 49.3901 21.01 49.1401 20.58 48.7701C20.11 49.1401 19.56 49.3901 18.91 49.5101C18.26 49.6301 17.68 49.6901 17.16 49.6901H16.23C15.97 49.6901 15.74 49.6601 15.56 49.5901C15.37 49.5201 15.28 49.4301 15.28 49.2901V47.6401L15.29 47.6501Z" fill="white"/>
<path d="M24.27 49.6998C24.01 49.6998 23.78 49.6698 23.6 49.5998C23.41 49.5298 23.32 49.4398 23.32 49.2998V47.6498C23.32 47.5398 23.41 47.4498 23.6 47.3798C23.79 47.3098 24.01 47.2798 24.27 47.2798H30.47V49.6898H24.27V49.6998Z" fill="white"/>
<path d="M30.3 49.6998C30.04 49.6998 29.81 49.6698 29.63 49.5998C29.44 49.5298 29.35 49.4398 29.35 49.2998V47.6498C29.35 47.5398 29.44 47.4498 29.63 47.3798C29.82 47.3098 30.04 47.2798 30.3 47.2798H36.5V49.6898H30.3V49.6998Z" fill="white"/>
<path d="M36.34 49.6998C36.08 49.6998 35.85 49.6698 35.67 49.5998C35.48 49.5298 35.39 49.4398 35.39 49.2998V47.6498C35.39 47.5398 35.48 47.4498 35.67 47.3798C35.86 47.3098 36.08 47.2798 36.34 47.2798H42.54V49.6898H36.34V49.6998Z" fill="white"/>
<path d="M47.7 44.2498C47.7 44.8498 47.74 45.3598 47.81 45.7898C48 46.6098 48.37 47.1698 48.93 47.4598C49.49 47.7498 50.21 47.8998 51.09 47.8998C52.33 47.8998 53.2 47.6098 53.7 47.0198C54.21 46.4298 54.46 45.4398 54.46 44.0598V43.0198C54.46 41.7498 54.21 40.7698 53.72 40.0698C53.22 39.3798 52.37 39.0298 51.15 39.0298C49.93 39.0298 49.03 39.3698 48.5 40.0498C47.97 40.7298 47.7 41.7198 47.7 43.0098V44.2498ZM41.42 47.6498C41.42 47.5398 41.51 47.4498 41.7 47.3798C41.89 47.3098 42.11 47.2798 42.37 47.2798H43.27C43.4 47.2798 43.57 47.2798 43.78 47.2498C43.99 47.2298 44.19 47.1798 44.4 47.1098C44.61 47.0298 44.79 46.9398 44.95 46.8098C45.11 46.6898 45.22 46.5198 45.27 46.2898C45.33 46.0698 45.35 45.7898 45.35 45.4798V42.7898C45.35 40.8598 45.85 39.3898 46.85 38.3598C47.85 37.3298 49.29 36.8198 51.16 36.8198C53.03 36.8198 54.44 37.3298 55.4 38.3298C56.35 39.3398 56.83 40.8198 56.83 42.7598V44.1898C56.83 46.1398 56.38 47.6098 55.48 48.6098C54.58 49.6098 53.12 50.1098 51.1 50.1098C50.05 50.1098 49.13 49.9698 48.34 49.6798C47.54 49.3898 46.91 48.9498 46.45 48.3498C46.13 48.8598 45.64 49.2098 44.99 49.3998C44.33 49.5998 43.61 49.6998 42.83 49.6998H42.38C42.12 49.6998 41.89 49.6698 41.71 49.5998C41.52 49.5298 41.43 49.4398 41.43 49.2998V47.6498H41.42Z" fill="white"/>
<path d="M61.17 30.6398C61.17 30.4898 61.22 30.3598 61.32 30.2498C61.42 30.1398 61.55 30.0798 61.7 30.0798H63.08C63.23 30.0798 63.35 30.1398 63.44 30.2498C63.53 30.3598 63.58 30.4898 63.58 30.6398V45.6198C63.58 45.9898 63.62 46.2898 63.71 46.4998C63.79 46.7098 63.92 46.8798 64.07 46.9898C64.23 47.0998 64.43 47.1798 64.66 47.2098C64.89 47.2498 65.16 47.2698 65.46 47.2698H66.16V49.6798H64.84C64.24 49.6798 63.72 49.6298 63.27 49.5298C62.82 49.4298 62.44 49.2398 62.12 48.9698C61.8 48.6998 61.56 48.3398 61.4 47.8898C61.24 47.4398 61.16 46.8598 61.16 46.1498V30.6298L61.17 30.6398ZM60.3 28.0098C59.96 28.0098 59.79 27.8998 59.79 27.6698V27.1898C59.79 26.9998 59.96 26.9098 60.3 26.9098H60.78C60.61 26.6998 60.49 26.4598 60.42 26.1698C60.34 25.8798 60.31 25.5998 60.31 25.3098C60.31 24.5198 60.54 23.9498 61 23.5798C61.46 23.2198 62.11 23.0298 62.95 23.0298C63.1 23.0298 63.27 23.0398 63.46 23.0598C63.65 23.0798 63.83 23.1098 64.02 23.1398C64.23 23.2098 64.33 23.3298 64.33 23.4798V23.8698C64.33 24.0798 64.21 24.1798 63.97 24.1798C63.93 24.1798 63.8 24.1798 63.58 24.1698C63.35 24.1698 63.2 24.1598 63.1 24.1598C62.11 24.1598 61.61 24.5798 61.61 25.4198C61.61 25.8098 61.68 26.1398 61.81 26.3898C61.94 26.6398 62.08 26.8098 62.23 26.8798H64.11C64.43 26.8798 64.59 26.9898 64.59 27.2198V27.6698C64.59 27.8198 64.55 27.9098 64.46 27.9498C64.38 27.9898 64.26 28.0098 64.11 28.0098H60.32H60.3Z" fill="white"/>
<path d="M71.44 32.6102C71.44 32.4202 71.51 32.2702 71.65 32.1602C71.79 32.0502 71.95 31.9902 72.11 31.9902H73.21C73.38 31.9902 73.53 32.0502 73.66 32.1602C73.79 32.2702 73.86 32.4202 73.86 32.6102V34.1302C73.86 34.3002 73.79 34.4402 73.66 34.5502C73.53 34.6602 73.38 34.7202 73.21 34.7202H72.11C71.94 34.7202 71.79 34.6602 71.65 34.5502C71.51 34.4402 71.44 34.3002 71.44 34.1302V32.6102ZM66.86 32.6102C66.86 32.4202 66.92 32.2702 67.04 32.1602C67.16 32.0502 67.32 31.9902 67.5 31.9902H68.59C68.78 31.9902 68.93 32.0502 69.05 32.1602C69.17 32.2702 69.23 32.4202 69.23 32.6102V34.1302C69.23 34.3002 69.16 34.4402 69.03 34.5502C68.9 34.6602 68.75 34.7202 68.58 34.7202H67.49C67.3 34.7202 67.15 34.6602 67.03 34.5502C66.91 34.4402 66.85 34.3002 66.85 34.1302V32.6102H66.86ZM65.04 47.6502C65.04 47.5402 65.13 47.4502 65.32 47.3802C65.51 47.3102 65.73 47.2802 65.99 47.2802H67.25C67.44 47.2802 67.64 47.2802 67.87 47.2502C68.09 47.2302 68.31 47.1902 68.51 47.1202C68.71 47.0502 68.89 46.9502 69.03 46.8102C69.17 46.6702 69.24 46.4802 69.24 46.2302V38.8802C69.24 38.7302 69.29 38.6002 69.39 38.5002C69.49 38.4002 69.62 38.3502 69.77 38.3502H71.06C71.21 38.3502 71.34 38.4002 71.44 38.5002C71.54 38.6002 71.59 38.7302 71.59 38.8802V46.6002C71.65 46.7502 71.76 46.8702 71.94 46.9502C72.12 47.0302 72.31 47.1002 72.53 47.1502C72.74 47.2002 72.96 47.2302 73.19 47.2502C73.41 47.2702 73.61 47.2802 73.78 47.2802H74.17V49.6902H73.83C73.25 49.6902 72.63 49.6302 71.96 49.5102C71.29 49.3902 70.75 49.1402 70.32 48.7702C69.85 49.1402 69.3 49.3902 68.65 49.5102C68 49.6302 67.42 49.6902 66.9 49.6902H65.97C65.71 49.6902 65.48 49.6602 65.3 49.5902C65.11 49.5202 65.02 49.4302 65.02 49.2902V47.6402L65.04 47.6502Z" fill="white"/>
<path d="M73.07 47.6499C73.07 47.5399 73.16 47.4499 73.35 47.3799C73.54 47.3099 73.76 47.2799 74.02 47.2799H75.51C75.7 47.2799 75.9 47.2799 76.13 47.2499C76.35 47.2299 76.57 47.1899 76.77 47.1199C76.98 47.0499 77.15 46.9499 77.29 46.8099C77.43 46.6699 77.5 46.4799 77.5 46.2299V29.1399C77.5 28.9899 77.55 28.8599 77.65 28.7599C77.75 28.6599 77.88 28.6099 78.03 28.6099H79.41C79.56 28.6099 79.68 28.6599 79.77 28.7599C79.86 28.8599 79.91 28.9899 79.91 29.1399V46.5899C79.97 46.7399 80.08 46.8599 80.26 46.9399C80.44 47.0199 80.63 47.0899 80.85 47.1399C81.06 47.1899 81.28 47.2199 81.51 47.2399C81.73 47.2599 81.93 47.2699 82.1 47.2699H82.49V49.6799H82.15C81.87 49.6799 81.57 49.6699 81.25 49.6399C80.93 49.6099 80.62 49.5699 80.31 49.4999C80 49.4299 79.7 49.3399 79.41 49.2199C79.12 49.0999 78.87 48.9499 78.67 48.7599C78.2 49.1299 77.65 49.3799 77 49.4999C76.36 49.6199 75.77 49.6799 75.25 49.6799H74.02C73.76 49.6799 73.53 49.6499 73.35 49.5799C73.16 49.5099 73.07 49.4199 73.07 49.2799V47.6299V47.6499Z" fill="white"/>
<path d="M81.37 47.6501C81.37 47.5401 81.46 47.4501 81.65 47.3801C81.84 47.3101 82.06 47.2801 82.32 47.2801H84.56C85.1 47.2801 85.44 47.2301 85.58 47.1401C85.72 47.0501 85.79 46.7601 85.79 46.2701V29.1501C85.79 29.0001 85.84 28.8701 85.94 28.7701C86.04 28.6701 86.17 28.6201 86.32 28.6201H87.7C87.85 28.6201 87.97 28.6701 88.06 28.7701C88.15 28.8701 88.2 29.0001 88.2 29.1501V46.1001C88.2 46.3801 88.2 46.6701 88.19 46.9701C88.18 47.2701 88.17 47.5601 88.15 47.8401C88.13 48.1201 88.1 48.3701 88.07 48.6001C88.03 48.7901 87.98 48.9501 87.9 49.0801C87.83 49.2101 87.67 49.3201 87.45 49.4201C87.3 49.4801 87.09 49.5201 86.81 49.5501C86.53 49.5801 86.22 49.6101 85.88 49.6301C85.54 49.6601 85.19 49.6801 84.83 49.6901C84.47 49.7001 84.12 49.7001 83.81 49.7001H82.32C82.06 49.7001 81.83 49.6701 81.65 49.6001C81.46 49.5301 81.37 49.4401 81.37 49.3001V47.6501Z" fill="white"/>
<path d="M110.75 34.1801C110.75 33.9901 110.82 33.8401 110.96 33.7301C111.1 33.6201 111.25 33.5601 111.42 33.5601H112.51C112.68 33.5601 112.83 33.6201 112.96 33.7301C113.09 33.8401 113.16 33.9901 113.16 34.1801V35.7001C113.16 35.8701 113.09 36.0101 112.96 36.1201C112.83 36.2301 112.68 36.2901 112.51 36.2901H111.42C111.25 36.2901 111.1 36.2301 110.96 36.1201C110.82 36.0101 110.75 35.8701 110.75 35.7001V34.1801ZM106.18 34.1801C106.18 33.9901 106.24 33.8401 106.36 33.7301C106.48 33.6201 106.64 33.5601 106.82 33.5601H107.92C108.11 33.5601 108.26 33.6201 108.38 33.7301C108.5 33.8401 108.56 33.9901 108.56 34.1801V35.7001C108.56 35.8701 108.49 36.0101 108.36 36.1201C108.23 36.2301 108.08 36.2901 107.91 36.2901H106.81C106.62 36.2901 106.47 36.2301 106.35 36.1201C106.23 36.0101 106.17 35.8701 106.17 35.7001V34.1801H106.18ZM115.86 47.2801C116.03 47.2801 116.23 47.2801 116.46 47.2501C116.69 47.2301 116.91 47.1901 117.11 47.1201C117.31 47.0501 117.48 46.9501 117.62 46.8101C117.76 46.6701 117.83 46.4801 117.83 46.2301V38.8801C117.83 38.7301 117.88 38.6001 117.98 38.5001C118.08 38.4001 118.21 38.3501 118.36 38.3501H119.68C119.83 38.3501 119.95 38.4001 120.04 38.5001C120.13 38.6001 120.18 38.7301 120.18 38.8801V46.6001C120.24 46.7501 120.35 46.8701 120.53 46.9501C120.71 47.0301 120.9 47.1001 121.12 47.1501C121.34 47.2001 121.56 47.2301 121.78 47.2501C122.01 47.2701 122.19 47.2801 122.34 47.2801H122.79V49.6901H122.48C122.22 49.6901 121.93 49.6901 121.62 49.6601C121.31 49.6401 121 49.5901 120.68 49.5201C120.36 49.4501 120.05 49.3501 119.75 49.2401C119.45 49.1301 119.2 48.9701 118.99 48.7601C118.5 49.1701 117.89 49.4301 117.15 49.5301C116.41 49.6301 115.65 49.6801 114.86 49.6801H107.79C106 49.6801 104.52 49.5101 103.37 49.1601C102.22 48.8101 101.31 48.3201 100.65 47.6701C99.99 47.0201 99.53 46.2401 99.27 45.3101C99.02 44.3801 98.89 43.3501 98.89 42.2101C98.89 41.8201 98.9 41.4101 98.93 40.9901C98.96 40.5701 99.02 40.0901 99.11 39.5401C99.17 39.1801 99.35 39.0101 99.67 39.0101H100.85C101.17 39.0101 101.31 39.2001 101.27 39.5701C101.23 40.0001 101.2 40.3701 101.19 40.6701C101.17 40.9701 101.16 41.2801 101.16 41.6001C101.16 42.4401 101.23 43.2101 101.38 43.9001C101.53 44.5901 101.84 45.1901 102.32 45.7001C102.8 46.2101 103.48 46.5901 104.37 46.8601C105.26 47.1301 106.44 47.2701 107.92 47.2701H115.83L115.86 47.2801Z" fill="white"/>
<path d="M126.35 52.9201C126.35 52.7301 126.42 52.5801 126.56 52.4701C126.7 52.3601 126.85 52.3001 127.02 52.3001H128.11C128.28 52.3001 128.43 52.3601 128.56 52.4701C128.69 52.5801 128.76 52.7301 128.76 52.9201V54.4401C128.76 54.5901 128.69 54.7301 128.56 54.8501C128.43 54.9701 128.28 55.0301 128.11 55.0301H127.02C126.85 55.0301 126.7 54.9701 126.56 54.8501C126.42 54.7301 126.35 54.5901 126.35 54.4401V52.9201ZM121.78 52.9201C121.78 52.7301 121.84 52.5801 121.96 52.4701C122.08 52.3601 122.24 52.3001 122.42 52.3001H123.51C123.7 52.3001 123.85 52.3601 123.97 52.4701C124.09 52.5801 124.15 52.7301 124.15 52.9201V54.4401C124.15 54.5901 124.08 54.7301 123.95 54.8501C123.82 54.9701 123.67 55.0301 123.5 55.0301H122.41C122.22 55.0301 122.07 54.9701 121.95 54.8501C121.83 54.7301 121.77 54.5901 121.77 54.4401V52.9201H121.78ZM121.66 47.6501C121.66 47.5401 121.75 47.4501 121.94 47.3801C122.13 47.3101 122.35 47.2801 122.61 47.2801H124.57C125.11 47.2801 125.46 47.2301 125.61 47.1401C125.76 47.0501 125.84 46.7601 125.84 46.2701V42.6801C125.84 42.1001 125.84 41.5001 125.83 40.8801C125.83 40.2601 125.81 39.5901 125.79 38.8601C125.79 38.7101 125.83 38.5801 125.92 38.4801C126 38.3801 126.12 38.3301 126.27 38.3301H127.62C127.79 38.3301 127.92 38.3801 128.01 38.4801C128.1 38.5801 128.15 38.7101 128.15 38.8601C128.17 39.5001 128.18 40.0301 128.19 40.4601C128.19 40.8901 128.2 41.2901 128.2 41.6701V44.3101C128.2 45.2101 128.2 46.0401 128.19 46.8101C128.19 47.5801 128.15 48.1801 128.09 48.6101C128.05 48.8001 127.99 48.9601 127.91 49.0901C127.83 49.2201 127.67 49.3301 127.45 49.4301C127.3 49.4901 127.09 49.5301 126.83 49.5601C126.57 49.5901 126.27 49.6201 125.93 49.6401C125.59 49.6701 125.25 49.6901 124.89 49.7001C124.53 49.7101 124.2 49.7101 123.88 49.7101H122.62C122.36 49.7101 122.13 49.6801 121.95 49.6101C121.76 49.5401 121.67 49.4501 121.67 49.3101V47.6601L121.66 47.6501Z" fill="white"/>
<path d="M134.65 43.55C134.65 44.88 134.93 45.84 135.49 46.44C136.05 47.04 136.96 47.34 138.21 47.34H140.99V39.09C140.61 39.05 140.25 39.02 139.9 39.01C139.54 38.99 139.13 38.98 138.67 38.98C137.43 38.98 136.46 39.33 135.74 40.02C135.02 40.71 134.66 41.7 134.66 42.99V43.55H134.65ZM133.28 54.41C133.28 54.15 133.43 54.02 133.73 54.02C134.05 54.02 134.45 54.02 134.94 54.03C135.43 54.03 135.82 54.04 136.12 54.04C136.87 54.04 137.54 54 138.13 53.91C138.72 53.83 139.23 53.67 139.65 53.43C140.07 53.2 140.39 52.87 140.62 52.45C140.84 52.03 140.97 51.48 140.98 50.81V49.69H138.17C136.28 49.69 134.83 49.2 133.82 48.23C132.81 47.26 132.31 45.79 132.31 43.82V43.12C132.31 41.16 132.89 39.6 134.05 38.46C135.21 37.32 136.86 36.75 138.99 36.75C139.74 36.75 140.46 36.78 141.16 36.85C141.86 36.92 142.45 37.02 142.94 37.17C143.11 37.23 143.22 37.29 143.28 37.35C143.34 37.42 143.36 37.52 143.36 37.67V47.27H145.8V49.68H143.33V50.75C143.29 51.8 143.11 52.67 142.77 53.37C142.43 54.07 141.97 54.63 141.39 55.05C140.81 55.47 140.11 55.77 139.3 55.95C138.49 56.13 137.59 56.22 136.62 56.22C136.43 56.22 136.19 56.21 135.89 56.19H135.05C134.75 56.17 134.48 56.15 134.24 56.13C134 56.11 133.83 56.09 133.73 56.07C133.54 56.03 133.42 55.98 133.37 55.92C133.31 55.85 133.29 55.76 133.29 55.63V54.4L133.28 54.41Z" fill="white"/>
<path d="M145.63 49.6998C145.37 49.6998 145.14 49.6698 144.96 49.5998C144.77 49.5298 144.68 49.4398 144.68 49.2998V47.6498C144.68 47.5398 144.77 47.4498 144.96 47.3798C145.15 47.3098 145.37 47.2798 145.63 47.2798H151.83V49.6898H145.63V49.6998Z" fill="white"/>
<path d="M151.66 49.6998C151.4 49.6998 151.17 49.6698 150.99 49.5998C150.8 49.5298 150.71 49.4398 150.71 49.2998V47.6498C150.71 47.5398 150.8 47.4498 150.99 47.3798C151.18 47.3098 151.4 47.2798 151.66 47.2798H157.86V49.6898H151.66V49.6998Z" fill="white"/>
<path d="M156.74 47.7301C156.74 47.5801 156.83 47.4701 157.02 47.3901C157.21 47.3201 157.43 47.2801 157.69 47.2801H172.39C172.41 46.8501 172.42 46.3901 172.43 45.9001C172.44 45.4101 172.44 44.9501 172.44 44.5001C172.44 43.4901 172.29 42.6501 171.99 41.9901C171.69 41.3301 171.27 40.8001 170.73 40.4201C170.19 40.0401 169.53 39.7701 168.77 39.6201C168 39.4701 167.15 39.4001 166.22 39.4001C165.66 39.4001 165.07 39.4001 164.47 39.4101C163.86 39.4201 163.3 39.4201 162.77 39.4201C162.24 39.4201 161.8 39.4201 161.42 39.4301C161.05 39.4301 160.8 39.4401 160.69 39.4401C160.37 39.4401 160.19 39.3001 160.13 39.0201C160.11 38.9801 160.1 38.8901 160.1 38.7401V38.4301C160.1 37.9801 160.14 37.5501 160.21 37.1401C160.28 36.7301 160.39 36.3101 160.53 35.8901C160.67 35.4701 160.85 35.0301 161.06 34.5601C161.27 34.0901 161.53 33.5901 161.83 33.0501L163.94 29.1801C164.03 29.0301 164.13 28.9001 164.23 28.7901C164.33 28.6801 164.49 28.6201 164.69 28.6201H166.01C166.16 28.6201 166.27 28.6501 166.33 28.7201C166.4 28.7901 166.43 28.8701 166.43 28.9601C166.43 29.0501 166.4 29.1601 166.35 29.2701L163.71 34.2401C163.39 34.8401 163.13 35.4101 162.91 35.9701C162.7 36.5201 162.58 36.9301 162.56 37.1901C163.46 37.1501 164.22 37.1201 164.83 37.1101C165.45 37.0901 166 37.0801 166.48 37.0801C167.79 37.0801 168.96 37.2101 169.99 37.4701C171.02 37.7301 171.89 38.1401 172.6 38.7001C173.31 39.2601 173.85 39.9901 174.23 40.8801C174.6 41.7701 174.79 42.8401 174.79 44.0901V45.8301L174.73 46.6201V47.2901H176.83V49.7001H157.67C157.41 49.7001 157.18 49.6601 157 49.5701C156.81 49.4901 156.72 49.3701 156.72 49.2201V47.7301H156.74Z" fill="white"/>
<path d="M175.73 47.6501C175.73 47.5401 175.82 47.4501 176.01 47.3801C176.2 47.3101 176.42 47.2801 176.68 47.2801H178.92C179.46 47.2801 179.8 47.2301 179.94 47.1401C180.08 47.0501 180.15 46.7601 180.15 46.2701V29.1501C180.15 29.0001 180.2 28.8701 180.3 28.7701C180.4 28.6701 180.53 28.6201 180.68 28.6201H182.06C182.21 28.6201 182.33 28.6701 182.42 28.7701C182.51 28.8701 182.56 29.0001 182.56 29.1501V46.1001C182.56 46.3801 182.56 46.6701 182.55 46.9701C182.54 47.2701 182.53 47.5601 182.51 47.8401C182.49 48.1201 182.46 48.3701 182.43 48.6001C182.39 48.7901 182.34 48.9501 182.26 49.0801C182.19 49.2101 182.03 49.3201 181.81 49.4201C181.66 49.4801 181.45 49.5201 181.16 49.5501C180.88 49.5801 180.57 49.6101 180.24 49.6301C179.9 49.6601 179.55 49.6801 179.19 49.6901C178.83 49.7001 178.48 49.7001 178.17 49.7001H176.68C176.42 49.7001 176.19 49.6701 176.01 49.6001C175.82 49.5301 175.73 49.4401 175.73 49.3001V47.6501Z" fill="white"/>
<path d="M187.35 29.1601C187.35 29.0101 187.4 28.8801 187.5 28.7701C187.6 28.6601 187.73 28.6001 187.88 28.6001H189.26C189.41 28.6001 189.53 28.6601 189.62 28.7701C189.71 28.8801 189.76 29.0101 189.76 29.1601V49.1401C189.76 49.2901 189.71 49.4201 189.62 49.5301C189.53 49.6401 189.41 49.7001 189.26 49.7001H187.88C187.73 49.7001 187.6 49.6401 187.5 49.5301C187.4 49.4201 187.35 49.2901 187.35 49.1401V29.1601Z" fill="white"/>
<path d="M1.90999 64.3601C2.26999 64.3601 2.56999 64.3901 2.80999 64.4501C3.04999 64.5101 3.23999 64.6401 3.38999 64.8201C3.52999 65.0101 3.62999 65.2601 3.68999 65.5901C3.73999 65.9101 3.76999 66.3301 3.76999 66.8401V70.8701L8.10999 66.5301C8.36999 66.2701 8.61999 66.0101 8.85999 65.7501C9.09999 65.5001 9.35999 65.2601 9.61999 65.0601C9.88999 64.8501 10.19 64.6801 10.51 64.5501C10.83 64.4201 11.2 64.3501 11.62 64.3501H12.65V64.8701C12.08 64.8701 11.58 64.9701 11.15 65.1701C10.72 65.3701 10.22 65.7501 9.64999 66.3201L5.61999 70.3501L10.37 75.3001C10.94 75.8901 11.53 76.4001 12.16 76.8401C12.79 77.2701 13.36 77.5201 13.89 77.5901V78.0001C13.74 78.0501 13.56 78.1001 13.34 78.1401C13.13 78.1801 12.86 78.2001 12.54 78.2001C12.25 78.2001 11.95 78.1701 11.64 78.1101C11.33 78.0501 10.99 77.9201 10.63 77.7401C10.27 77.5501 9.87999 77.3001 9.45999 76.9901C9.04999 76.6701 8.58999 76.2501 8.09999 75.7301L3.75999 71.1801V78.0001H1.89999V66.8401C1.89999 66.2201 1.80999 65.7201 1.63999 65.3401C1.46999 64.9601 1.06999 64.7701 0.449988 64.7701H0.0499878V64.3601H1.90999Z" fill="white"/>
<path d="M15.76 66.8399C15.76 66.2199 15.67 65.7199 15.5 65.3399C15.33 64.9599 14.93 64.7699 14.31 64.7699H13.9V64.3599H15.76C16.12 64.3599 16.42 64.3899 16.66 64.4499C16.9 64.5099 17.09 64.6399 17.24 64.8199C17.38 65.0099 17.48 65.2599 17.54 65.5899C17.59 65.9099 17.62 66.3299 17.62 66.8399V72.7299C17.62 73.4599 17.68 74.1099 17.8 74.6799C17.92 75.2499 18.13 75.7399 18.42 76.1399C18.71 76.5399 19.09 76.8499 19.55 77.0599C20.01 77.2699 20.59 77.3799 21.28 77.3799C22.07 77.3799 22.73 77.2799 23.26 77.0699C23.8 76.8599 24.23 76.5399 24.56 76.1099C24.89 75.6799 25.13 75.1299 25.26 74.4699C25.4 73.8099 25.47 73.0199 25.47 72.1099V64.3599H26.3V72.1099C26.3 73.1199 26.22 73.9999 26.07 74.7699C25.92 75.5299 25.65 76.1699 25.25 76.6799C24.86 77.1899 24.32 77.5699 23.64 77.8299C22.96 78.0899 22.09 78.2099 21.03 78.2099C19.97 78.2099 19.18 78.0799 18.51 77.8299C17.84 77.5799 17.29 77.1899 16.89 76.6799C16.48 76.1699 16.19 75.5299 16.02 74.7699C15.85 74.0099 15.76 73.1199 15.76 72.1099V66.8399Z" fill="white"/>
<path d="M29.52 66.7802C29.38 66.3902 29.24 66.0702 29.11 65.8002C28.97 65.5302 28.82 65.3102 28.65 65.1502C28.48 64.9802 28.28 64.8602 28.05 64.7802C27.82 64.7002 27.56 64.6402 27.25 64.6102V64.2001C27.31 64.2001 27.41 64.2002 27.57 64.1802C27.73 64.1702 27.86 64.1602 27.95 64.1602C28.24 64.1602 28.55 64.1802 28.87 64.2302C29.19 64.2802 29.51 64.3902 29.83 64.5702C30.15 64.7502 30.45 65.0102 30.74 65.3702C31.03 65.7202 31.28 66.1902 31.48 66.7902L34.25 74.7701L36.46 68.2202L35.96 66.7902C35.82 66.4002 35.69 66.0802 35.55 65.8102C35.41 65.5402 35.26 65.3202 35.09 65.1602C34.92 64.9902 34.72 64.8702 34.49 64.7902C34.26 64.7102 34 64.6502 33.69 64.6202V64.2102C33.74 64.2102 33.85 64.2102 34.01 64.1902C34.17 64.1802 34.3 64.1702 34.39 64.1702C34.68 64.1702 34.99 64.1902 35.31 64.2402C35.63 64.2902 35.95 64.4002 36.27 64.5802C36.59 64.7602 36.89 65.0201 37.18 65.3801C37.47 65.7301 37.72 66.2002 37.92 66.8002L40.69 74.7802L44.22 64.3902H45.11L40.38 78.2402H39.97L36.91 69.5402L33.93 78.2402H33.52L29.51 66.8102L29.52 66.7802Z" fill="white"/>
<path d="M47.79 73.2499H52.85L50.37 67.2599L47.79 73.2499ZM58.12 77.9999C57.89 78.0699 57.61 78.0999 57.29 78.0999C57.06 78.0999 56.78 78.0699 56.47 78.0199C56.16 77.9699 55.84 77.8499 55.52 77.6599C55.2 77.4699 54.88 77.1999 54.57 76.8399C54.26 76.4799 53.99 76.0099 53.77 75.4099L53.25 74.0699H47.46L45.81 77.9999H44.88L50.67 64.3599H51.29L55.84 75.4199C56.01 75.8099 56.16 76.1299 56.3 76.3999C56.44 76.6699 56.61 76.8899 56.79 77.0499C56.97 77.2199 57.16 77.3399 57.37 77.4199C57.58 77.4999 57.82 77.5599 58.11 77.5899V77.9999H58.12Z" fill="white"/>
<path d="M59.4 64.3599H61.26V75.5199C61.26 76.1399 61.35 76.6399 61.52 77.0199C61.69 77.3999 62.09 77.5899 62.71 77.5899H63.12V77.9999H61.26C60.9 77.9999 60.6 77.9699 60.36 77.9099C60.12 77.8499 59.93 77.7199 59.78 77.5399C59.64 77.3499 59.54 77.0999 59.48 76.7899C59.42 76.4699 59.4 76.0499 59.4 75.5299V64.3699V64.3599Z" fill="white"/>
<path d="M75.13 64.3599V65.1899H70.48V77.9999H68.62V65.1899H66.76C65.93 65.1899 65.3 65.3799 64.85 65.7599C64.4 66.1399 64.18 66.7399 64.18 67.5699H63.77V66.0199C63.77 65.8099 63.79 65.6099 63.84 65.4099C63.89 65.2099 63.98 65.0299 64.11 64.8799C64.24 64.7299 64.42 64.5999 64.65 64.5099C64.88 64.4099 65.17 64.3699 65.53 64.3699H75.14L75.13 64.3599Z" fill="white"/>
<path d="M82.38 64.3599H84.24V75.5199C84.24 76.1399 84.33 76.6399 84.5 77.0199C84.67 77.3999 85.07 77.5899 85.69 77.5899H86.1V77.9999H84.24C83.88 77.9999 83.58 77.9699 83.34 77.9099C83.1 77.8499 82.91 77.7199 82.76 77.5399C82.62 77.3499 82.52 77.0999 82.46 76.7899C82.41 76.4699 82.38 76.0499 82.38 75.5299V64.3699V64.3599Z" fill="white"/>
<path d="M88.71 66.8399C88.71 66.2199 88.58 65.7199 88.32 65.3399C88.06 64.9599 87.57 64.7699 86.85 64.7699H86.64V64.3599H87.98C88.65 64.3599 89.21 64.4699 89.64 64.6899C90.07 64.9099 90.45 65.2099 90.77 65.5999L98 74.5899V64.3599H98.83V78.2099H98.42L89.53 67.1499V77.9999H88.7V66.8399H88.71Z" fill="white"/>
<path d="M110.72 74.53C110.72 75.11 110.62 75.63 110.42 76.1C110.22 76.57 109.93 76.97 109.56 77.31C109.19 77.65 108.74 77.91 108.21 78.08C107.68 78.26 107.08 78.35 106.42 78.35C105.85 78.35 105.29 78.29 104.74 78.18C104.18 78.06 103.68 77.89 103.23 77.67C102.78 77.45 102.42 77.19 102.13 76.88C101.85 76.57 101.71 76.22 101.71 75.84V73.63H102.12C102.35 75.02 102.81 76.02 103.49 76.63C104.17 77.24 105.09 77.54 106.25 77.54C106.61 77.54 106.94 77.49 107.27 77.4C107.59 77.31 107.88 77.18 108.12 77C108.37 76.82 108.57 76.6 108.72 76.34C108.87 76.08 108.95 75.77 108.95 75.43C108.95 74.82 108.76 74.31 108.38 73.88C108 73.45 107.43 73.02 106.67 72.58L104.13 71.07C103.25 70.55 102.62 70.02 102.26 69.48C101.9 68.94 101.71 68.29 101.71 67.52C101.71 66.98 101.81 66.5 102 66.07C102.19 65.64 102.46 65.27 102.82 64.96C103.17 64.65 103.59 64.41 104.08 64.25C104.57 64.08 105.12 64 105.72 64C106.23 64 106.75 64.06 107.28 64.17C107.81 64.28 108.29 64.44 108.72 64.66C109.15 64.87 109.5 65.13 109.77 65.45C110.05 65.76 110.18 66.11 110.18 66.49V68.7H109.77C109.54 67.31 109.09 66.32 108.44 65.72C107.78 65.13 106.87 64.83 105.71 64.83C105.41 64.83 105.11 64.88 104.83 64.98C104.54 65.08 104.29 65.21 104.07 65.39C103.85 65.57 103.67 65.79 103.54 66.05C103.4 66.31 103.33 66.6 103.33 66.92C103.33 67.24 103.38 67.49 103.47 67.73C103.57 67.97 103.71 68.19 103.9 68.39C104.09 68.59 104.33 68.8 104.62 69C104.91 69.2 105.24 69.41 105.61 69.63L108.15 71.14C108.59 71.4 108.97 71.65 109.3 71.89C109.62 72.13 109.89 72.39 110.1 72.66C110.31 72.93 110.46 73.21 110.56 73.52C110.66 73.82 110.71 74.17 110.71 74.55" fill="white"/>
<path d="M113.65 66.8399C113.65 66.2199 113.56 65.7199 113.39 65.3399C113.22 64.9599 112.82 64.7699 112.2 64.7699H111.79V64.3599H113.65C114.01 64.3599 114.31 64.3899 114.55 64.4499C114.79 64.5099 114.98 64.6399 115.13 64.8199C115.27 65.0099 115.37 65.2599 115.43 65.5899C115.49 65.9099 115.51 66.3299 115.51 66.8399V72.7299C115.51 73.4599 115.57 74.1099 115.7 74.6799C115.82 75.2499 116.03 75.7399 116.32 76.1399C116.61 76.5399 116.98 76.8499 117.45 77.0599C117.91 77.2699 118.49 77.3799 119.18 77.3799C119.97 77.3799 120.63 77.2799 121.16 77.0699C121.7 76.8599 122.13 76.5399 122.46 76.1099C122.79 75.6799 123.03 75.1299 123.16 74.4699C123.3 73.8099 123.37 73.0199 123.37 72.1099V64.3599H124.2V72.1099C124.2 73.1199 124.12 73.9999 123.97 74.7699C123.82 75.5299 123.55 76.1699 123.15 76.6799C122.76 77.1899 122.22 77.5699 121.54 77.8299C120.86 78.0899 119.99 78.2099 118.93 78.2099C117.87 78.2099 117.08 78.0799 116.41 77.8299C115.74 77.5799 115.19 77.1899 114.79 76.6799C114.38 76.1699 114.09 75.5299 113.92 74.7699C113.75 74.0099 113.66 73.1199 113.66 72.1099V66.8399H113.65Z" fill="white"/>
<path d="M131.4 70.9699C131.69 70.9699 132.02 70.9099 132.38 70.7999C132.75 70.6899 133.09 70.5199 133.42 70.2899C133.75 70.0599 134.03 69.7699 134.26 69.3999C134.49 69.0299 134.6 68.5899 134.6 68.0699C134.6 67.5499 134.49 67.0699 134.26 66.6799C134.03 66.2999 133.75 65.9799 133.42 65.7499C133.09 65.5199 132.74 65.3399 132.38 65.2299C132.02 65.1199 131.69 65.0599 131.4 65.0599C131.14 65.0599 130.87 65.0799 130.58 65.1199C130.3 65.1599 130.05 65.2099 129.85 65.2599V70.7399C130.06 70.7999 130.3 70.8399 130.58 70.8799C130.86 70.9199 131.13 70.9399 131.4 70.9399M131.3 71.6999H129.85V77.9999H127.99V66.8399C127.99 66.2199 127.9 65.7199 127.73 65.3399C127.56 64.9599 127.16 64.7699 126.54 64.7699H126.13V64.3599H131.5C131.94 64.3599 132.46 64.3999 133.05 64.4699C133.64 64.5499 134.21 64.7099 134.74 64.9799C135.28 65.2399 135.73 65.6199 136.1 66.1099C136.47 66.5999 136.66 67.2599 136.66 68.0799C136.66 68.6699 136.56 69.1799 136.35 69.5899C136.14 69.9999 135.88 70.3499 135.55 70.6099C135.23 70.8799 134.87 71.0899 134.48 71.2399C134.09 71.3899 133.71 71.5099 133.35 71.5899L135.52 75.2099C135.78 75.6499 136.03 76.0099 136.25 76.3099C136.48 76.5999 136.7 76.8399 136.92 77.0199C137.14 77.1999 137.36 77.3399 137.58 77.4199C137.8 77.4999 138.04 77.5599 138.3 77.5899V77.9999C138.19 78.0599 138.02 78.0999 137.79 78.1399C137.56 78.1799 137.32 78.1999 137.06 78.1999C136.7 78.1999 136.37 78.1499 136.06 78.0599C135.75 77.9599 135.45 77.7999 135.16 77.5599C134.87 77.3299 134.58 77.0199 134.28 76.6299C133.98 76.2399 133.67 75.7699 133.34 75.1999L131.27 71.6899L131.3 71.6999Z" fill="white"/>
<path d="M141.45 73.2499H146.51L144.03 67.2599L141.45 73.2499ZM151.78 77.9999C151.55 78.0699 151.27 78.0999 150.95 78.0999C150.72 78.0999 150.44 78.0699 150.13 78.0199C149.82 77.9699 149.5 77.8499 149.18 77.6599C148.86 77.4699 148.54 77.1999 148.23 76.8399C147.92 76.4799 147.65 76.0099 147.43 75.4099L146.91 74.0699H141.12L139.47 77.9999H138.54L144.33 64.3599H144.95L149.5 75.4199C149.67 75.8099 149.82 76.1299 149.96 76.3999C150.1 76.6699 150.27 76.8899 150.45 77.0499C150.63 77.2199 150.82 77.3399 151.03 77.4199C151.24 77.4999 151.48 77.5599 151.77 77.5899V77.9999H151.78Z" fill="white"/>
<path d="M153.5 66.8399C153.5 66.2199 153.37 65.7199 153.11 65.3399C152.85 64.9599 152.36 64.7699 151.64 64.7699H151.43V64.3599H152.77C153.44 64.3599 154 64.4699 154.43 64.6899C154.86 64.9099 155.24 65.2099 155.56 65.5999L162.79 74.5899V64.3599H163.62V78.2099H163.21L154.32 67.1499V77.9999H153.49V66.8399H153.5Z" fill="white"/>
<path d="M177.55 68.7002C177.29 67.3502 176.8 66.3602 176.09 65.7202C175.38 65.0902 174.45 64.7702 173.31 64.7702C172.64 64.7702 172 64.8802 171.4 65.1102C170.8 65.3402 170.27 65.7102 169.82 66.2302C169.37 66.7502 169.01 67.4302 168.75 68.2702C168.49 69.1102 168.36 70.1502 168.36 71.3902C168.36 72.1602 168.45 72.9202 168.64 73.6602C168.83 74.4002 169.12 75.0702 169.52 75.6402C169.92 76.2202 170.43 76.6902 171.06 77.0502C171.69 77.4102 172.44 77.5902 173.32 77.5902C174.35 77.5902 175.24 77.3402 175.99 76.8502C176.73 76.3502 177.4 75.6402 177.98 74.7002L178.39 75.0102C178.06 75.6602 177.69 76.2002 177.29 76.6302C176.88 77.0602 176.45 77.4202 175.98 77.6802C175.51 77.9502 175.01 78.1402 174.46 78.2502C173.91 78.3602 173.33 78.4202 172.71 78.4202C171.73 78.4202 170.85 78.2402 170.05 77.8702C169.26 77.5102 168.58 77.0102 168.02 76.3702C167.46 75.7402 167.03 74.9902 166.74 74.1402C166.44 73.2802 166.3 72.3702 166.3 71.3902C166.3 70.3602 166.47 69.3902 166.81 68.4902C167.15 67.5902 167.61 66.8002 168.18 66.1202C168.76 65.4502 169.44 64.9202 170.22 64.5302C171 64.1402 171.83 63.9502 172.71 63.9502C173.85 63.9502 174.84 64.1102 175.66 64.4402C176.48 64.7702 177.08 65.1502 177.46 65.6102C177.72 65.9302 177.87 66.3702 177.92 66.9302C177.96 67.5002 177.98 68.0902 177.98 68.7102H177.57L177.55 68.7002Z" fill="white"/>
<path d="M188.26 64.3601C188.62 64.3601 188.91 64.4101 189.14 64.5001C189.37 64.6001 189.55 64.7201 189.68 64.8701C189.81 65.0201 189.9 65.2001 189.95 65.4001C190 65.6001 190.02 65.8001 190.02 66.0101V67.5601H189.61C189.61 66.7301 189.38 66.1301 188.94 65.7501C188.49 65.3701 187.86 65.1801 187.03 65.1801H183.19V70.5501H188.77V71.3801H183.19V77.1701H186.81C187.75 77.1701 188.49 77.0001 189.03 76.6501C189.57 76.3001 190.01 75.7201 190.32 74.8901L190.73 74.9901L190.01 76.9501C189.9 77.2701 189.72 77.5201 189.46 77.7101C189.21 77.9001 188.87 77.9901 188.46 77.9901H181.33V66.8301C181.33 66.2101 181.24 65.7101 181.07 65.3301C180.9 64.9501 180.5 64.7601 179.88 64.7601H179.47V64.3501H188.27L188.26 64.3601Z" fill="white"/>
</g>
<defs>
<clipPath id="clip0_903_69">
<rect width="301.06" height="105.06" fill="white"/>
</clipPath>
</defs>
</svg>