<svg xmlns="http://www.w3.org/2000/svg" xmlns:xlink="http://www.w3.org/1999/xlink" width="353.52" height="226.392" viewBox="0 0 353.52 226.392"><script xmlns="" src="chrome-extension://hoklmmgfnpapgjgcpechhaamimifchmp/frame_ant/frame_ant.js"/>
  <defs>
    <clipPath id="clip-path">
      <rect id="Rectangle_15" data-name="Rectangle 15" width="353.52" height="226.392" fill="#fff"/>
    </clipPath>
  </defs>
  <g id="Group_17" data-name="Group 17" transform="translate(-0.005 -0.001)">
    <g id="Group_16" data-name="Group 16" transform="translate(0.005 0.001)" clip-path="url(#clip-path)">
      <path id="Path_8" data-name="Path 8" d="M216.7,287.909a2.959,2.959,0,0,1-.489,1.945,1.93,1.93,0,0,1-1.517.55,1.977,1.977,0,0,1-1.518-.55,2.853,2.853,0,0,1-.514-1.945q0-2.472,2.032-2.471,2.006,0,2.007,2.471m.135,5.188a4.305,4.305,0,0,0,1.713-.893,4.236,4.236,0,0,0,1.138-1.652,6.747,6.747,0,0,0,.416-2.521,7.056,7.056,0,0,0-.44-2.68,4.4,4.4,0,0,0-1.187-1.7,4.454,4.454,0,0,0-1.726-.905,7.733,7.733,0,0,0-2.055-.269,8.213,8.213,0,0,0-2.019.245,4.531,4.531,0,0,0-1.713.832,4.176,4.176,0,0,0-1.2,1.567,5.747,5.747,0,0,0-.453,2.422v.489a2.618,2.618,0,0,1-.514,1.738,1.4,1.4,0,0,1-1,.464h-.71a.848.848,0,0,0-.746.331,2.177,2.177,0,0,0-.232,1.187,1.915,1.915,0,0,0,.245,1.126.868.868,0,0,0,.734.318q.343,0,.783-.025a4.073,4.073,0,0,0,.906-.159,4.264,4.264,0,0,0,.918-.392,2.46,2.46,0,0,0,.8-.746,3.886,3.886,0,0,0,1.823,1.162,8.719,8.719,0,0,0,4.528.061m-16.286,5.066a.216.216,0,0,0,.245-.245v-2.4a.216.216,0,0,0-.245-.245h-3.035a.216.216,0,0,0-.245.245v2.4a.216.216,0,0,0,.245.245ZM194.287,284.8l1.444,1.738a.226.226,0,0,0,.343-.025,5.019,5.019,0,0,1,1.126-.771,3.073,3.073,0,0,1,1.395-.306,2.7,2.7,0,0,1,1.187.232,2.037,2.037,0,0,1,.771.636,2.543,2.543,0,0,1,.416.942,5.207,5.207,0,0,1,.122,1.15,3.873,3.873,0,0,1-.086.893,1.051,1.051,0,0,1-.869.856,4.28,4.28,0,0,1-.954.086h-6.07a.812.812,0,0,0-.759.367,2.312,2.312,0,0,0-.22,1.151,1.922,1.922,0,0,0,.245,1.113.856.856,0,0,0,.734.33h7.44a6.545,6.545,0,0,0,2.117-.306,2.457,2.457,0,0,0,1.383-1.187,2.384,2.384,0,0,0,1.249,1.212,5.14,5.14,0,0,0,1.786.281q.978,0,.979-1.493a1.985,1.985,0,0,0-.245-1.125.843.843,0,0,0-.734-.343h-.563a2.146,2.146,0,0,1-1.31-.342,1.325,1.325,0,0,1-.525-.93v-.392a8.776,8.776,0,0,0-.318-2.41,5.11,5.11,0,0,0-1.016-1.934,4.718,4.718,0,0,0-1.811-1.285,7.1,7.1,0,0,0-2.728-.465,5.836,5.836,0,0,0-2.656.551,7.558,7.558,0,0,0-1.946,1.407c-.1.1-.073.22.073.367m-6.754,3.108a2.959,2.959,0,0,1-.489,1.945,2.35,2.35,0,0,1-3.023,0,2.9,2.9,0,0,1-.5-1.945q0-2.472,2.007-2.471t2.007,2.471m.428,5.1a3.892,3.892,0,0,0,1.847-1.236,2.535,2.535,0,0,0,.685.771,3.092,3.092,0,0,0,.833.428,3.781,3.781,0,0,0,.9.184q.466.037.905.037.979,0,.979-1.493a1.985,1.985,0,0,0-.245-1.125.844.844,0,0,0-.735-.343h-.709a1.5,1.5,0,0,1-1.053-.379,1.673,1.673,0,0,1-.465-1.187c0-.1,0-.2.012-.306s.012-.216.012-.33a4.969,4.969,0,0,0-5.408-5.555,5.614,5.614,0,0,0-3.989,1.309,4.9,4.9,0,0,0-1.395,3.757v.489a2.668,2.668,0,0,1-.5,1.738,1.39,1.39,0,0,1-1.015.464h-.71a.83.83,0,0,0-.759.343,2.284,2.284,0,0,0-.221,1.175,1.915,1.915,0,0,0,.245,1.126.869.869,0,0,0,.735.318q.367,0,.832-.037a4.852,4.852,0,0,0,.942-.171,3.645,3.645,0,0,0,.918-.4,2.108,2.108,0,0,0,.71-.71,3.885,3.885,0,0,0,1.824,1.162,8.185,8.185,0,0,0,2.386.33,8,8,0,0,0,2.435-.355M172.85,287.86v2.374h-1.884a2.357,2.357,0,0,1-1.506-.453,2.214,2.214,0,0,1-.575-1.8,2.98,2.98,0,0,1,.526-1.86,1.784,1.784,0,0,1,1.5-.685q1.934,0,1.934,2.422m-1.395,10.352a5.064,5.064,0,0,0,3.634-1.126,4.571,4.571,0,0,0,1.162-3.426V293.2h1.665a.916.916,0,0,0,.746-.281,2.1,2.1,0,0,0,.232-1.212q0-1.468-.979-1.468h-1.665v-2.276a7.087,7.087,0,0,0-.428-2.631,4.239,4.239,0,0,0-1.162-1.688,4.418,4.418,0,0,0-1.713-.893,7.74,7.74,0,0,0-2.055-.269,6.825,6.825,0,0,0-1.995.294,4.543,4.543,0,0,0-1.713.954,4.719,4.719,0,0,0-1.2,1.737,6.829,6.829,0,0,0-.452,2.643q0,2.79,1.285,3.94a5.341,5.341,0,0,0,3.683,1.15h2.35a3.089,3.089,0,0,1-.147,1.04,1.4,1.4,0,0,1-.417.624,1.542,1.542,0,0,1-.673.306,4.419,4.419,0,0,1-.918.086h-2.814a.216.216,0,0,0-.245.245v2.471a.216.216,0,0,0,.245.245Zm-19.725-7.978a.837.837,0,0,0-.746.343,2.187,2.187,0,0,0-.233,1.175,1.916,1.916,0,0,0,.245,1.113.854.854,0,0,0,.734.33h11.5a.216.216,0,0,0,.245-.245v-2.472a.217.217,0,0,0-.245-.245H157.9c-.115-.065-.257-.159-.428-.281a2.549,2.549,0,0,1-.5-.49,2.855,2.855,0,0,1-.416-.734,2.645,2.645,0,0,1-.171-.991,2.267,2.267,0,0,1,.612-1.714,2.2,2.2,0,0,1,1.591-.587,3.315,3.315,0,0,1,2.422,1.1.24.24,0,0,0,.367,0l1.542-1.836q.2-.2.049-.367a5.181,5.181,0,0,0-1.811-1.3,6.949,6.949,0,0,0-2.961-.563,6.452,6.452,0,0,0-2.423.416,4.819,4.819,0,0,0-1.688,1.1,4.358,4.358,0,0,0-.979,1.578,5.534,5.534,0,0,0-.318,1.872,4.619,4.619,0,0,0,.257,1.6,4.225,4.225,0,0,0,.648,1.187Zm-9.055-1.333a1.617,1.617,0,0,1-.563-1.408,1.953,1.953,0,0,1,.563-1.616,2.356,2.356,0,0,1,1.493-.44h1.958v1.688a2.194,2.194,0,0,1-.551,1.652,2.056,2.056,0,0,1-1.48.525,2.379,2.379,0,0,1-1.42-.4m1-6.425a7.229,7.229,0,0,0-1.824.232,3.964,3.964,0,0,0-2.717,2.35,6.033,6.033,0,0,0-.428,2.435,5.694,5.694,0,0,0,.38,2.2,3.825,3.825,0,0,0,1.04,1.468,4.28,4.28,0,0,0,1.529.832,6.118,6.118,0,0,0,1.824.269,5.014,5.014,0,0,0,1.493-.22,3.665,3.665,0,0,0,1.248-.661,2,2,0,0,0,.893,1.431,3.841,3.841,0,0,0,1.873.379h2.545a.877.877,0,0,0,.746-.306,2.043,2.043,0,0,0,.232-1.162q0-1.493-.979-1.493h-.759a1.224,1.224,0,0,1-.894-.281,1.429,1.429,0,0,1-.281-1.016v-7.513a.217.217,0,0,0-.245-.245H146.37a.216.216,0,0,0-.245.245v1.052Zm3.719-3.035a.217.217,0,0,0,.245-.245v-2.4a.217.217,0,0,0-.245-.245h-2.471a.216.216,0,0,0-.245.245v2.4a.216.216,0,0,0,.245.245Zm-3.793,0a.216.216,0,0,0,.245-.245v-2.4a.217.217,0,0,0-.245-.245h-2.448a.216.216,0,0,0-.245.245v2.4a.216.216,0,0,0,.245.245ZM131.537,276.8a.217.217,0,0,0-.245-.245h-2.961a.217.217,0,0,0-.245.245v16.152a.216.216,0,0,0,.245.245h2.961a.216.216,0,0,0,.245-.245Zm-9.25,16.4a2.814,2.814,0,0,0,2.2-.746,3.461,3.461,0,0,0,.661-2.337V276.8a.216.216,0,0,0-.245-.245H121.92a.216.216,0,0,0-.245.245v12.139a1.429,1.429,0,0,1-.282,1.016,1.222,1.222,0,0,1-.892.281h-.857a.569.569,0,0,0-.453.221,1.688,1.688,0,0,0-.294.538,4.178,4.178,0,0,0-.171.685,4.082,4.082,0,0,0-.061.661.79.79,0,0,0,.245.685,1.279,1.279,0,0,0,.734.171ZM106.844,284.8l1.444,1.738a.226.226,0,0,0,.343-.025,5.034,5.034,0,0,1,1.126-.771,3.074,3.074,0,0,1,1.4-.306,2.7,2.7,0,0,1,1.187.232,2.045,2.045,0,0,1,.771.636,2.543,2.543,0,0,1,.416.942,5.168,5.168,0,0,1,.122,1.15,3.913,3.913,0,0,1-.086.893,1.053,1.053,0,0,1-.869.856,4.284,4.284,0,0,1-.955.086H105.67a.812.812,0,0,0-.759.367,2.311,2.311,0,0,0-.22,1.151,1.922,1.922,0,0,0,.245,1.113.854.854,0,0,0,.734.33h7.44a6.547,6.547,0,0,0,2.117-.306,2.459,2.459,0,0,0,1.383-1.187,2.381,2.381,0,0,0,1.248,1.212,5.14,5.14,0,0,0,1.786.281q.978,0,.979-1.493a1.99,1.99,0,0,0-.245-1.125.844.844,0,0,0-.735-.343h-.563a2.142,2.142,0,0,1-1.309-.342,1.326,1.326,0,0,1-.527-.93v-.392a8.752,8.752,0,0,0-.317-2.41,5.127,5.127,0,0,0-1.015-1.934,4.726,4.726,0,0,0-1.811-1.285,7.093,7.093,0,0,0-2.729-.465,5.835,5.835,0,0,0-2.655.551,7.544,7.544,0,0,0-1.945,1.407c-.1.1-.073.22.073.367m6.168-4.356a.216.216,0,0,0,.245-.245v-2.4a.216.216,0,0,0-.245-.245h-3.035a.216.216,0,0,0-.245.245v2.4a.216.216,0,0,0,.245.245ZM99.8,288.007q0,.539-.024.955a2.287,2.287,0,0,1-.135.7.839.839,0,0,1-.355.428,1.274,1.274,0,0,1-.661.147h-.857a.567.567,0,0,0-.452.221,1.689,1.689,0,0,0-.294.538,4.311,4.311,0,0,0-.171.685,4.155,4.155,0,0,0-.061.661.792.792,0,0,0,.245.685,1.282,1.282,0,0,0,.734.171h2.2a5.644,5.644,0,0,0,1.9-.257,1.923,1.923,0,0,0,1.064-.966,2.106,2.106,0,0,0,1.15,1,5.3,5.3,0,0,0,1.615.22q.978,0,.979-1.493a1.985,1.985,0,0,0-.245-1.125.842.842,0,0,0-.734-.343h-.563a2.248,2.248,0,0,1-1.346-.342,1.27,1.27,0,0,1-.514-.979V276.8a.217.217,0,0,0-.245-.245h-2.986a.217.217,0,0,0-.245.245Zm-7.9.22a4.309,4.309,0,0,1-.2,1.554q-.2.454-.979.453H89.2a.837.837,0,0,0-.746.343,2.188,2.188,0,0,0-.232,1.175,1.908,1.908,0,0,0,.245,1.138.884.884,0,0,0,.734.306h2.521a8.035,8.035,0,0,0,2.117-.22,1.831,1.831,0,0,0,1.162-1,2.109,2.109,0,0,0,1.15,1,5.3,5.3,0,0,0,1.616.22q.978,0,.979-1.493a1.985,1.985,0,0,0-.245-1.125.844.844,0,0,0-.734-.343H97.2a2.2,2.2,0,0,1-1.333-.354,1.273,1.273,0,0,1-.527-.967v-5.775a.216.216,0,0,0-.245-.245H92.136a.216.216,0,0,0-.245.245Zm4.7,9.985a.216.216,0,0,0,.245-.245v-2.4a.216.216,0,0,0-.245-.245H94.119a.216.216,0,0,0-.245.245v2.4a.216.216,0,0,0,.245.245Zm-3.793,0a.216.216,0,0,0,.245-.245v-2.4a.216.216,0,0,0-.245-.245H90.35a.216.216,0,0,0-.245.245v2.4a.216.216,0,0,0,.245.245Zm-8.125-.073a.216.216,0,0,0,.245-.245v-2.4a.216.216,0,0,0-.245-.245H82.005a.216.216,0,0,0-.245.245v2.4a.216.216,0,0,0,.245.245ZM82.69,293.2a6.554,6.554,0,0,0,2.117-.306A2.458,2.458,0,0,0,86.19,291.7a2.384,2.384,0,0,0,1.249,1.212,5.14,5.14,0,0,0,1.786.281q.979,0,.979-1.493a1.98,1.98,0,0,0-.245-1.125.842.842,0,0,0-.734-.343h-.563a2.2,2.2,0,0,1-1.321-.342,1.291,1.291,0,0,1-.538-.906,1.545,1.545,0,0,1,.012-.2,1.73,1.73,0,0,0,.013-.22,8.727,8.727,0,0,0-.319-2.41,5.117,5.117,0,0,0-1.015-1.934,4.726,4.726,0,0,0-1.811-1.285,7.093,7.093,0,0,0-2.729-.465,5.835,5.835,0,0,0-2.655.551,7.559,7.559,0,0,0-1.946,1.407c-.1.1-.073.22.073.367l1.444,1.738a.226.226,0,0,0,.343-.025,5.019,5.019,0,0,1,1.126-.771,3.074,3.074,0,0,1,1.4-.306,2.694,2.694,0,0,1,1.186.232,2.037,2.037,0,0,1,.771.636,2.543,2.543,0,0,1,.416.942,5.206,5.206,0,0,1,.122,1.15,3.912,3.912,0,0,1-.086.893,1.053,1.053,0,0,1-.869.856,4.284,4.284,0,0,1-.955.086H78.334a6.48,6.48,0,0,0-1.554.184,3.314,3.314,0,0,0-1.309.637,3.117,3.117,0,0,0-.894,1.211,4.8,4.8,0,0,0-.33,1.909,5.232,5.232,0,0,0,.306,1.921,3,3,0,0,0,.893,1.249,3.49,3.49,0,0,0,1.457.673,9.111,9.111,0,0,0,1.994.2h1.762a.217.217,0,0,0,.245-.245V295.5a.216.216,0,0,0-.245-.245H79.313a2.3,2.3,0,0,1-1.248-.232.923.923,0,0,1-.318-.8.957.957,0,0,1,.306-.759,1.4,1.4,0,0,1,.942-.269Zm-18.21,0a2.817,2.817,0,0,0,2.2-.746,3.461,3.461,0,0,0,.661-2.337V276.8a.217.217,0,0,0-.245-.245H64.113a.217.217,0,0,0-.245.245v12.139a1.429,1.429,0,0,1-.281,1.016,1.222,1.222,0,0,1-.893.281h-.856a.568.568,0,0,0-.453.221,1.689,1.689,0,0,0-.294.538,4.242,4.242,0,0,0-.172.685,4.082,4.082,0,0,0-.061.661.79.79,0,0,0,.245.685,1.283,1.283,0,0,0,.735.171Zm-8.516-5.188q0,.539-.024.955a2.285,2.285,0,0,1-.135.7.84.84,0,0,1-.354.428,1.275,1.275,0,0,1-.661.147h-.857a.569.569,0,0,0-.453.221,1.688,1.688,0,0,0-.294.538,4.176,4.176,0,0,0-.171.685,4.082,4.082,0,0,0-.061.661.79.79,0,0,0,.245.685,1.279,1.279,0,0,0,.734.171h2.2a5.644,5.644,0,0,0,1.9-.257,1.923,1.923,0,0,0,1.064-.966,2.111,2.111,0,0,0,1.15,1,5.3,5.3,0,0,0,1.616.22q.977,0,.979-1.493a1.985,1.985,0,0,0-.245-1.125.844.844,0,0,0-.734-.343H61.3a2.251,2.251,0,0,1-1.346-.342,1.274,1.274,0,0,1-.514-.979V276.8a.217.217,0,0,0-.245-.245H56.209a.216.216,0,0,0-.245.245Zm-7.9.22a4.309,4.309,0,0,1-.2,1.554q-.2.454-.979.453H45.367a.838.838,0,0,0-.747.343,2.195,2.195,0,0,0-.232,1.175,1.908,1.908,0,0,0,.245,1.138.883.883,0,0,0,.734.306h2.52a8.04,8.04,0,0,0,2.117-.22,1.833,1.833,0,0,0,1.162-1,2.106,2.106,0,0,0,1.15,1,5.294,5.294,0,0,0,1.615.22q.979,0,.979-1.493a1.98,1.98,0,0,0-.245-1.125.842.842,0,0,0-.734-.343H53.37a2.2,2.2,0,0,1-1.334-.354,1.275,1.275,0,0,1-.526-.967v-5.775a.216.216,0,0,0-.245-.245H48.3a.216.216,0,0,0-.245.245Zm4.821-7.806a.216.216,0,0,0,.245-.245v-2.4a.216.216,0,0,0-.245-.245H50.408a.216.216,0,0,0-.245.245v2.4a.216.216,0,0,0,.245.245Zm-3.793,0a.217.217,0,0,0,.245-.245v-2.4a.217.217,0,0,0-.245-.245H46.639a.216.216,0,0,0-.245.245v2.4a.216.216,0,0,0,.245.245ZM38.98,273.886c-.1,0-.147.057-.147.171v1.1c0,.114.05.171.147.171h5.457q.147,0,.147-.171v-1.1c0-.114-.049-.171-.147-.171H41.99a1.87,1.87,0,0,1-.5-.489,1.249,1.249,0,0,1-.232-.759,1.063,1.063,0,0,1,.294-.784,1.027,1.027,0,0,1,.759-.293,1.532,1.532,0,0,1,1.151.563c.082.082.163.073.245-.025l.734-.758a.165.165,0,0,0,.024-.221,2.476,2.476,0,0,0-.893-.7,3.073,3.073,0,0,0-1.358-.281,3.151,3.151,0,0,0-1.212.209,2.217,2.217,0,0,0-.82.562,2.391,2.391,0,0,0-.477.8,2.573,2.573,0,0,0-.159.881,2.41,2.41,0,0,0,.1.71,3.145,3.145,0,0,0,.245.587Zm1.028,16.225a3.461,3.461,0,0,0,.661,2.337,2.816,2.816,0,0,0,2.2.746h2.422a.936.936,0,0,0,.746-.269,1.909,1.909,0,0,0,.232-1.15,2.169,2.169,0,0,0-.245-1.187.832.832,0,0,0-.734-.355h-.661a1.221,1.221,0,0,1-.893-.281,1.426,1.426,0,0,1-.281-1.016V276.8a.217.217,0,0,0-.245-.245H40.253a.216.216,0,0,0-.245.245Zm-6.02-2.2a2.956,2.956,0,0,1-.489,1.945,1.93,1.93,0,0,1-1.518.55,1.977,1.977,0,0,1-1.517-.55,2.853,2.853,0,0,1-.514-1.945q0-2.472,2.031-2.471,2.006,0,2.007,2.471m.135,5.188a4.312,4.312,0,0,0,1.714-.893,4.233,4.233,0,0,0,1.137-1.652,6.733,6.733,0,0,0,.417-2.521,7.056,7.056,0,0,0-.44-2.68,4.4,4.4,0,0,0-1.187-1.7,4.447,4.447,0,0,0-1.725-.905,7.741,7.741,0,0,0-2.056-.269,8.212,8.212,0,0,0-2.019.245,4.534,4.534,0,0,0-1.714.832,4.174,4.174,0,0,0-1.2,1.567,5.746,5.746,0,0,0-.453,2.422v.489a2.615,2.615,0,0,1-.514,1.738,1.4,1.4,0,0,1-1,.464h-.71a.848.848,0,0,0-.746.331,2.177,2.177,0,0,0-.232,1.187,1.915,1.915,0,0,0,.245,1.126.867.867,0,0,0,.734.318q.343,0,.783-.025a4.068,4.068,0,0,0,.905-.159,4.223,4.223,0,0,0,.918-.392,2.447,2.447,0,0,0,.8-.746,3.888,3.888,0,0,0,1.824,1.162,8.719,8.719,0,0,0,4.528.061M18.5,288.228a4.306,4.306,0,0,1-.2,1.554q-.2.454-.979.453H15.8a.837.837,0,0,0-.747.343,2.194,2.194,0,0,0-.232,1.175,1.908,1.908,0,0,0,.245,1.138.883.883,0,0,0,.735.306h2.52a8.031,8.031,0,0,0,2.117-.22,1.834,1.834,0,0,0,1.163-1,2.107,2.107,0,0,0,1.149,1,5.3,5.3,0,0,0,1.616.22q.978,0,.979-1.493a1.985,1.985,0,0,0-.245-1.125.844.844,0,0,0-.734-.343h-.563a2.2,2.2,0,0,1-1.334-.354,1.277,1.277,0,0,1-.527-.967v-5.775a.216.216,0,0,0-.245-.245H18.741a.216.216,0,0,0-.245.245Zm4.7,9.985a.217.217,0,0,0,.245-.245v-2.4a.216.216,0,0,0-.245-.245H20.723a.216.216,0,0,0-.245.245v2.4a.216.216,0,0,0,.245.245Zm-3.793,0a.216.216,0,0,0,.245-.245v-2.4a.216.216,0,0,0-.245-.245H16.954a.216.216,0,0,0-.245.245v2.4a.216.216,0,0,0,.245.245Zm-9.447-5.7a3,3,0,0,1-.71,2.215,2.671,2.671,0,0,1-1.958.7,3.347,3.347,0,0,1-1.015-.158,2.435,2.435,0,0,1-.906-.527,2.633,2.633,0,0,1-.648-.954,3.768,3.768,0,0,1-.245-1.444,5.945,5.945,0,0,1,.294-1.934,12.588,12.588,0,0,1,.636-1.542.307.307,0,0,0,.037-.184c-.008-.057-.053-.1-.135-.135l-2.643-.856q-.269-.073-.367.073a8.8,8.8,0,0,0-.992,2.325,9.549,9.549,0,0,0-.354,2.521,6.425,6.425,0,0,0,.5,2.656,4.858,4.858,0,0,0,1.358,1.811A5.58,5.58,0,0,0,4.8,298.1a8.6,8.6,0,0,0,2.41.33,8.7,8.7,0,0,0,2.435-.33,5.339,5.339,0,0,0,1.97-1.028,4.808,4.808,0,0,0,1.31-1.787,6.533,6.533,0,0,0,.477-2.63v-.22a1.947,1.947,0,0,0,1.015.624,5.752,5.752,0,0,0,1.31.135q.977,0,.979-1.493a1.99,1.99,0,0,0-.245-1.125.844.844,0,0,0-.734-.343h-.466a2.2,2.2,0,0,1-1.334-.354,1.275,1.275,0,0,1-.526-.967v-3.745a.217.217,0,0,0-.245-.245H10.2a.216.216,0,0,0-.245.245Zm-.734-9.446a.216.216,0,0,0,.245-.245v-2.4a.216.216,0,0,0-.245-.245H6.186a.216.216,0,0,0-.245.245v2.4a.216.216,0,0,0,.245.245Z" transform="translate(-0.341 -96.189)" fill="#fff"/>
      <path id="Path_9" data-name="Path 9" d="M216.823,336.539c0,1.268-.737,1.748-2,1.748h-1.1v-3.5h1.1c1.268,0,2,.463,2,1.748m3.254,0c0-2.733-2.012-4.043-5.07-4.043h-4.179a.325.325,0,0,0-.325.326v11.339a.325.325,0,0,0,.325.326H213.4a.325.325,0,0,0,.325-.326v-3.58h1.285c3.058,0,5.07-1.335,5.07-4.042M202.7,344.693c3.255,0,5.4-1.67,5.4-5.122v-6.749a.323.323,0,0,0-.316-.326H205.1a.324.324,0,0,0-.317.326v6.749c0,1.782-.625,2.673-2.082,2.673-1.473,0-2.1-.891-2.1-2.673v-6.749a.325.325,0,0,0-.325-.326h-2.68a.324.324,0,0,0-.317.326v6.749c0,3.452,2.158,5.122,5.421,5.122m-10.578-6.2c0,2.45-.942,3.839-2.587,3.839s-2.587-1.388-2.587-3.839.943-3.837,2.587-3.837,2.587,1.388,2.587,3.837m3.357,0c0-3.546-2.089-6.2-5.944-6.2s-5.944,2.654-5.944,6.2,2.09,6.2,5.944,6.2,5.944-2.655,5.944-6.2m-16.616-2.209c0,1.062-.7,1.525-1.851,1.525h-1.319V334.74h1.319c1.148,0,1.851.462,1.851,1.542m-2.142,3.991,2.579,3.992a.465.465,0,0,0,.411.222h2.724c.282,0,.385-.283.223-.514l-2.989-4.231a3.572,3.572,0,0,0,2.448-3.46c0-2.578-2.081-3.786-5.019-3.786h-4.308a.324.324,0,0,0-.317.326v11.339a.324.324,0,0,0,.317.326h2.577a.325.325,0,0,0,.326-.326v-3.888Zm-7.014-7.289a10.54,10.54,0,0,0-3.888-.694c-4.395,0-6.844,2.629-6.844,6.2,0,3.743,2.621,6.2,7.041,6.2a10.568,10.568,0,0,0,3.914-.659.4.4,0,0,0,.283-.4v-5.687a.325.325,0,0,0-.325-.325h-4.668a.323.323,0,0,0-.317.325v1.421a.323.323,0,0,0,.317.325h2.013v2.477a3.937,3.937,0,0,1-1.113.129,3.494,3.494,0,0,1-3.787-3.8c0-2.442,1.577-3.8,3.992-3.8a6.887,6.887,0,0,1,2.955.66c.231.111.5.026.513-.232l.146-1.747a.344.344,0,0,0-.231-.385m-25.978,11.177a.325.325,0,0,0,.325.325h8.136a.325.325,0,0,0,.326-.325v-1.678a.325.325,0,0,0-.326-.325h-5.139v-2.605h4.609a.325.325,0,0,0,.325-.325V337.55a.325.325,0,0,0-.325-.325h-4.609v-2.4h5.011a.323.323,0,0,0,.317-.325v-1.678a.324.324,0,0,0-.317-.326h-8.008a.325.325,0,0,0-.325.326Zm-2.443-2.389a4.7,4.7,0,0,1-2.244.505,3.438,3.438,0,0,1-3.743-3.787,3.4,3.4,0,0,1,3.684-3.752,5.254,5.254,0,0,1,2.235.471c.231.112.5.026.514-.231l.146-1.746a.345.345,0,0,0-.231-.386,8.737,8.737,0,0,0-3.169-.556c-4.034,0-6.535,2.457-6.535,6.2,0,3.8,2.535,6.218,6.577,6.218a8.934,8.934,0,0,0,3.2-.548.343.343,0,0,0,.231-.385L141.8,342c-.017-.257-.274-.351-.515-.231m-14.328-1.6-3.685-7.434a.418.418,0,0,0-.4-.24h-3.16a.325.325,0,0,0-.325.326v11.34a.325.325,0,0,0,.325.325h2.5a.331.331,0,0,0,.325-.325v-7.349l3.684,7.434a.419.419,0,0,0,.4.24h3.16a.325.325,0,0,0,.325-.325v-11.34a.325.325,0,0,0-.325-.326h-2.5a.331.331,0,0,0-.325.326Zm-15-5.147,1.31,4.582h-2.629Zm-1.919-2.527a.361.361,0,0,0-.359.266l-3.709,11.306a.292.292,0,0,0,.3.419h2.681a.363.363,0,0,0,.368-.283l.625-2.184h4.018l.634,2.184a.363.363,0,0,0,.368.283h2.681a.292.292,0,0,0,.3-.419l-3.709-11.306a.363.363,0,0,0-.36-.266Zm-8.4,3.786c0,1.062-.7,1.525-1.851,1.525H98.466V334.74h1.319c1.148,0,1.851.462,1.851,1.542m-2.142,3.991,2.578,3.992a.465.465,0,0,0,.411.222h2.723c.283,0,.386-.283.223-.514l-2.989-4.231a3.572,3.572,0,0,0,2.449-3.46c0-2.578-2.081-3.786-5.019-3.786H95.563a.324.324,0,0,0-.317.326v11.339a.324.324,0,0,0,.317.326H98.14a.325.325,0,0,0,.326-.326v-3.888Zm-12.051,4.42c3.255,0,5.4-1.67,5.4-5.122v-6.749a.324.324,0,0,0-.317-.326H89.842a.323.323,0,0,0-.317.326v6.749c0,1.782-.625,2.673-2.082,2.673-1.474,0-2.1-.891-2.1-2.673v-6.749a.325.325,0,0,0-.325-.326H82.338a.323.323,0,0,0-.316.326v6.749c0,3.452,2.157,5.122,5.421,5.122m-15.5-3.245a.334.334,0,0,0-.54.24l-.162,1.841a.35.35,0,0,0,.248.385,9.684,9.684,0,0,0,3.82.78c3.255,0,4.865-1.344,4.865-3.623,0-1.816-1.113-3-3.485-3.786-1.68-.557-2.168-.934-2.168-1.585,0-.505.488-.959,1.765-.959a8.863,8.863,0,0,1,2.569.462c.274.086.488-.026.514-.3l.145-1.739a.331.331,0,0,0-.248-.385,10.816,10.816,0,0,0-3.254-.488c-3.118,0-4.848,1.379-4.848,3.579,0,1.851,1.138,2.973,3.383,3.684,1.782.574,2.271.959,2.271,1.654,0,.745-.883,1.071-1.817,1.071a6.308,6.308,0,0,1-3.057-.831m-5.85-1.277-3.684-7.434a.418.418,0,0,0-.4-.24h-3.16a.325.325,0,0,0-.325.326v11.34a.325.325,0,0,0,.325.325h2.5a.331.331,0,0,0,.325-.325v-7.349l3.684,7.434a.419.419,0,0,0,.4.24h3.16a.325.325,0,0,0,.325-.325v-11.34a.325.325,0,0,0-.325-.326h-2.5a.331.331,0,0,0-.326.326ZM53.036,332.5a.325.325,0,0,0-.326.326v11.34a.325.325,0,0,0,.326.325h2.679a.324.324,0,0,0,.317-.325v-11.34a.324.324,0,0,0-.317-.326ZM37.242,344.161a.325.325,0,0,0,.325.326h2.672a.325.325,0,0,0,.325-.326v-4.608h4.608a.325.325,0,0,0,.326-.325V337.55a.325.325,0,0,0-.326-.325H40.564v-2.4h5a.325.325,0,0,0,.325-.325v-1.678a.325.325,0,0,0-.325-.326h-8a.325.325,0,0,0-.325.326Zm-10.519,0a.323.323,0,0,0,.317.325h8.419a.326.326,0,0,0,.326-.325V342.4a.325.325,0,0,0-.326-.325H30.046v-9.251a.326.326,0,0,0-.326-.326H27.04a.324.324,0,0,0-.317.326Zm-7.8.531c3.254,0,5.4-1.67,5.4-5.122v-6.749a.323.323,0,0,0-.317-.326H21.319a.324.324,0,0,0-.317.326v6.749c0,1.782-.626,2.673-2.082,2.673-1.474,0-2.1-.891-2.1-2.673v-6.749a.325.325,0,0,0-.326-.326H13.816a.324.324,0,0,0-.317.326v6.749c0,3.452,2.158,5.122,5.422,5.122m-8.189-11.709a10.535,10.535,0,0,0-3.888-.694c-4.395,0-6.843,2.629-6.843,6.2,0,3.743,2.62,6.2,7.04,6.2a10.572,10.572,0,0,0,3.914-.659.4.4,0,0,0,.283-.4v-5.687a.325.325,0,0,0-.326-.325H6.244a.324.324,0,0,0-.317.325v1.421a.324.324,0,0,0,.317.325H8.257v2.477a3.942,3.942,0,0,1-1.113.129,3.494,3.494,0,0,1-3.787-3.8c0-2.442,1.576-3.8,3.992-3.8a6.884,6.884,0,0,1,2.954.66c.231.111.5.026.514-.232l.146-1.747a.343.343,0,0,0-.231-.385" transform="translate(-0.003 -118.318)" fill="#fff"/>
      <path id="Path_10" data-name="Path 10" d="M54.8,89.055c-25.166,0-41.312,17.165-41.312,41.022,0,24.291,15.565,41.021,43.056,41.021,5.966,0,13.094-1.019,17.022-2.618V136.331H54.074a8.582,8.582,0,0,1-8.582-8.583,2.763,2.763,0,0,1,2.764-2.764H83.6a2.772,2.772,0,0,1,2.764,2.764v46.913a3.144,3.144,0,0,1-2.328,3.273c-8.946,3.347-17.456,4.8-28.365,4.8C22.072,182.735.4,160.769.4,130.077c0-29.821,20.946-52.66,53.675-52.66,10.766,0,19.858,1.382,28,4.437,1.6.583,2.327,1.527,2.11,3.128l-.05.09A11.928,11.928,0,0,1,70.8,90.838a67.461,67.461,0,0,0-16-1.783" transform="translate(-0.145 -27.566)" fill="#fff"/>
      <path id="Path_11" data-name="Path 11" d="M166.256,80.128a10.066,10.066,0,0,1,10.036,10.037V179.19a2.772,2.772,0,0,1-2.765,2.764h-7.271a2.762,2.762,0,0,1-2.765-2.764v-96.3a2.763,2.763,0,0,1,2.765-2.764" transform="translate(-58.217 -28.531)" fill="#fff"/>
      <path id="Path_12" data-name="Path 12" d="M260.992,89.055c-25.165,0-41.311,17.165-41.311,41.022,0,24.291,15.563,41.021,43.057,41.021,5.964,0,13.092-1.019,17.019-2.618V136.331H260.265a8.583,8.583,0,0,1-8.583-8.583,2.763,2.763,0,0,1,2.765-2.764h35.346a2.772,2.772,0,0,1,2.765,2.764v46.913a3.144,3.144,0,0,1-2.326,3.273c-8.947,3.347-17.456,4.8-28.367,4.8-33.6,0-55.275-21.967-55.275-52.658,0-29.821,20.947-52.66,53.676-52.66,10.763,0,19.855,1.382,28,4.437,1.6.583,2.329,1.527,2.109,3.128a12.075,12.075,0,0,1-13.488,5.831,67.551,67.551,0,0,0-15.9-1.759" transform="translate(-73.562 -27.566)" fill="#fff"/>
      <path id="Path_13" data-name="Path 13" d="M475.382,99a72.846,72.846,0,0,1,2.806,10.369c3.736,18.847-1.107,36.515-15.069,49.251-13.834,11.914-31.25,14.912-49.013,9.882l-.187-.052-.145-.042a74.089,74.089,0,0,1-11.875-4.534,50.388,50.388,0,0,0,44.4,26.546c.178,0,.355,0,.533,0A50.34,50.34,0,0,0,475.382,99" transform="translate(-143.105 -35.252)" fill="#d28c64"/>
      <path id="Path_14" data-name="Path 14" d="M497.956,63.751c0,.015,0,0,0,0-5.41-33.635-13.4-49.642-20.037-58.7a.106.106,0,0,1-.021-.029s-.005,0-.007-.008a15.4,15.4,0,0,0-5.068-4.45A5.975,5.975,0,0,0,470.346,0c-1.813,0-3.485.982-4.435,3.529a9.135,9.135,0,0,0-.549,2.807c-.4,9.4.564,25.347,17.008,43.717,4.354,4.866,10.355,9.169,15.587,13.7" transform="translate(-165.679 -0.001)" fill="#fff"/>
      <path id="Path_15" data-name="Path 15" d="M405.856,140.106a50.534,50.534,0,0,1,63.7-48.555c-5.83-5.027-15.185-13.227-18.136-15.849-17.479-15.518-17.785-40.283-17.7-44.653a57.98,57.98,0,0,1-4.906,8.158,337.215,337.215,0,0,0-25.983,41.9c-15.754,30.026-11.1,46.3-4.386,58.575a76.519,76.519,0,0,0,7.405,3.1Z" transform="translate(-139.66 -11.056)" fill="#fff"/>
      <path id="Path_2499" data-name="Path 2499" d="M302,172.2a.436.436,0,0,0,.436.436h3.559a.436.436,0,0,0,.436-.436V159.775h4.03a.436.436,0,0,0,.436-.437V157a.436.436,0,0,0-.436-.436H297.97a.444.444,0,0,0-.437.436v2.341a.444.444,0,0,0,.437.437H302ZM291.81,156.561a.436.436,0,0,0-.437.436v15.2a.437.437,0,0,0,.437.436H295.4a.433.433,0,0,0,.424-.436V157a.433.433,0,0,0-.424-.436Zm-10.272,3.386,1.757,6.141h-3.524Zm-2.571-3.386a.486.486,0,0,0-.482.356l-4.971,15.153a.392.392,0,0,0,.4.562h3.592a.489.489,0,0,0,.494-.378l.838-2.928h5.384l.849,2.928a.489.489,0,0,0,.494.378h3.592a.392.392,0,0,0,.4-.562l-4.971-15.153a.486.486,0,0,0-.481-.356Zm-18.76,0a.45.45,0,0,0-.459.368l-2.09,11.158-2.456-11.2a.413.413,0,0,0-.424-.321h-3.57a.407.407,0,0,0-.4.551l4.155,15.153a.457.457,0,0,0,.459.368h4.374a.449.449,0,0,0,.459-.368l2.043-10.79,2.043,10.79a.448.448,0,0,0,.459.368h4.374a.458.458,0,0,0,.459-.368l4.155-15.153a.409.409,0,0,0-.4-.551h-3.569a.412.412,0,0,0-.424.321l-2.457,11.2-2.09-11.158a.449.449,0,0,0-.459-.368Zm-18.443,16.347c4.363,0,7.244-2.239,7.244-6.865V157a.434.434,0,0,0-.426-.436h-3.6a.434.434,0,0,0-.426.436v9.046c0,2.388-.837,3.581-2.789,3.581-1.975,0-2.813-1.193-2.813-3.581V157a.435.435,0,0,0-.436-.436h-3.593a.434.434,0,0,0-.426.436v9.046c0,4.626,2.893,6.865,7.267,6.865M223.043,157a.436.436,0,0,0-.436-.436h-3.582a.436.436,0,0,0-.436.436v15.2a.436.436,0,0,0,.436.436h3.582a.436.436,0,0,0,.436-.436v-7.5l5.211,7.692a.532.532,0,0,0,.459.241h4.168a.4.4,0,0,0,.321-.677l-5.728-7.887,4.833-6.807c.264-.379.068-.7-.31-.7h-3.915a.507.507,0,0,0-.459.253l-4.581,6.589Z" transform="translate(33.973 23.36)" fill="#fff"/>
    </g>
  </g>
</svg>